<?xml version="1.0" encoding="UTF-8" standalone="no"?>
<svg
   width="135"
   height="380"
   viewBox="0 0 135 380"
   version="1.1"
   id="svg214"
   sodipodi:docname="VCO.svg"
   inkscape:version="1.2.2 (b0a84865, 2022-12-01)"
   xmlns:inkscape="http://www.inkscape.org/namespaces/inkscape"
   xmlns:sodipodi="http://sodipodi.sourceforge.net/DTD/sodipodi-0.dtd"
   xmlns="http://www.w3.org/2000/svg"
   xmlns:svg="http://www.w3.org/2000/svg"
   xmlns:rdf="http://www.w3.org/1999/02/22-rdf-syntax-ns#"
   xmlns:cc="http://creativecommons.org/ns#"
   xmlns:dc="http://purl.org/dc/elements/1.1/">
  <metadata
     id="metadata218">
    <rdf:RDF>
      <cc:Work
         rdf:about="">
        <dc:format>image/svg+xml</dc:format>
        <dc:type
           rdf:resource="http://purl.org/dc/dcmitype/StillImage" />
      </cc:Work>
    </rdf:RDF>
  </metadata>
  <sodipodi:namedview
     pagecolor="#ffffff"
     bordercolor="#666666"
     borderopacity="1"
     objecttolerance="10"
     gridtolerance="10"
     guidetolerance="10"
     inkscape:pageopacity="0"
     inkscape:pageshadow="2"
     inkscape:window-width="1390"
     inkscape:window-height="1027"
     id="namedview216"
     showgrid="true"
     inkscape:zoom="1.701786"
     inkscape:cx="88.730311"
     inkscape:cy="91.96221"
     inkscape:window-x="1920"
     inkscape:window-y="25"
     inkscape:window-maximized="0"
     inkscape:current-layer="svg214"
     inkscape:showpageshadow="2"
     inkscape:pagecheckerboard="0"
     inkscape:deskcolor="#d1d1d1">
    <inkscape:grid
       type="xygrid"
       id="grid3220"
       spacingx="15"
       spacingy="15"
       units="px" />
  </sodipodi:namedview>
  <defs
     id="defs7">
    <inkscape:path-effect
       effect="simplify"
       id="path-effect3702"
       is_visible="true"
       lpeversion="1"
       steps="1"
       threshold="0.00172414"
       smooth_angles="360"
       helper_size="0"
       simplify_individual_paths="false"
       simplify_just_coalesce="false" />
    <inkscape:path-effect
       effect="simplify"
       id="path-effect3698"
       is_visible="true"
       lpeversion="1"
       steps="1"
       threshold="0.00172414"
       smooth_angles="360"
       helper_size="0"
       simplify_individual_paths="false"
       simplify_just_coalesce="false" />
    <inkscape:path-effect
       effect="simplify"
       id="path-effect3694"
       is_visible="true"
       lpeversion="1"
       steps="1"
       threshold="0.00172414"
       smooth_angles="360"
       helper_size="0"
       simplify_individual_paths="false"
       simplify_just_coalesce="false" />
    <inkscape:path-effect
       effect="simplify"
       id="path-effect3690"
       is_visible="true"
       lpeversion="1"
       steps="1"
       threshold="0.00172414"
       smooth_angles="360"
       helper_size="0"
       simplify_individual_paths="false"
       simplify_just_coalesce="false" />
    <inkscape:path-effect
       effect="simplify"
       id="path-effect3686"
       is_visible="true"
       lpeversion="1"
       steps="1"
       threshold="0.00172414"
       smooth_angles="360"
       helper_size="0"
       simplify_individual_paths="false"
       simplify_just_coalesce="false" />
    <inkscape:path-effect
       effect="simplify"
       id="path-effect3664"
       is_visible="true"
       lpeversion="1"
       steps="1"
       threshold="0.00172414"
       smooth_angles="360"
       helper_size="0"
       simplify_individual_paths="false"
       simplify_just_coalesce="false" />
    <inkscape:path-effect
       effect="simplify"
       id="path-effect3660"
       is_visible="true"
       lpeversion="1"
       steps="1"
       threshold="0.00172414"
       smooth_angles="360"
       helper_size="0"
       simplify_individual_paths="false"
       simplify_just_coalesce="false" />
    <inkscape:path-effect
       effect="simplify"
       id="path-effect3646"
       is_visible="true"
       lpeversion="1"
       steps="1"
       threshold="0.00172414"
       smooth_angles="360"
       helper_size="0"
       simplify_individual_paths="false"
       simplify_just_coalesce="false" />
    <inkscape:path-effect
       effect="simplify"
       id="path-effect3642"
       is_visible="true"
       lpeversion="1"
       steps="1"
       threshold="0.00172414"
       smooth_angles="360"
       helper_size="0"
       simplify_individual_paths="false"
       simplify_just_coalesce="false" />
    <inkscape:path-effect
       effect="simplify"
       id="path-effect3638"
       is_visible="true"
       lpeversion="1"
       steps="1"
       threshold="0.00172414"
       smooth_angles="360"
       helper_size="0"
       simplify_individual_paths="false"
       simplify_just_coalesce="false" />
    <inkscape:path-effect
       effect="simplify"
       id="path-effect3630"
       is_visible="true"
       lpeversion="1"
       steps="1"
       threshold="0.00172414"
       smooth_angles="360"
       helper_size="0"
       simplify_individual_paths="false"
       simplify_just_coalesce="false" />
    <inkscape:path-effect
       effect="simplify"
       id="path-effect3622"
       is_visible="true"
       lpeversion="1"
       steps="1"
       threshold="0.00172414"
       smooth_angles="360"
       helper_size="0"
       simplify_individual_paths="false"
       simplify_just_coalesce="false" />
    <inkscape:path-effect
       effect="simplify"
       id="path-effect1310"
       is_visible="true"
       lpeversion="1"
       steps="1"
       threshold="0.00172414"
       smooth_angles="360"
       helper_size="0"
       simplify_individual_paths="false"
       simplify_just_coalesce="false" />
    <inkscape:path-effect
       effect="simplify"
       id="path-effect1306"
       is_visible="true"
       lpeversion="1"
       steps="1"
       threshold="0.00172414"
       smooth_angles="360"
       helper_size="0"
       simplify_individual_paths="false"
       simplify_just_coalesce="false" />
    <inkscape:path-effect
       effect="simplify"
       id="path-effect1302"
       is_visible="true"
       lpeversion="1"
       steps="1"
       threshold="0.00172414"
       smooth_angles="360"
       helper_size="0"
       simplify_individual_paths="false"
       simplify_just_coalesce="false" />
    <inkscape:path-effect
       effect="simplify"
       id="path-effect1058"
       is_visible="true"
       lpeversion="1"
       steps="1"
       threshold="0.00172414"
       smooth_angles="360"
       helper_size="0"
       simplify_individual_paths="false"
       simplify_just_coalesce="false" />
    <inkscape:path-effect
       effect="simplify"
       id="path-effect1054"
       is_visible="true"
       lpeversion="1"
       steps="1"
       threshold="0.00172414"
       smooth_angles="360"
       helper_size="0"
       simplify_individual_paths="false"
       simplify_just_coalesce="false" />
    <inkscape:path-effect
       effect="simplify"
       id="path-effect1050"
       is_visible="true"
       lpeversion="1"
       steps="1"
       threshold="0.00172414"
       smooth_angles="360"
       helper_size="0"
       simplify_individual_paths="false"
       simplify_just_coalesce="false" />
    <linearGradient
       id="e177933e-b46b-4a47-9930-05c1f1d4149c"
       x1="67.5"
       x2="67.5"
       y2="380"
       gradientUnits="userSpaceOnUse">
      <stop
         offset="0"
         stop-color="#ebebeb"
         id="stop2"
         style="stop-color:#dedede;stop-opacity:0.6042403;" />
      <stop
         offset="1"
         stop-color="#e1e1e1"
         id="stop4" />
    </linearGradient>
  </defs>
  <g
     id="ae8a9d53-7d51-4e2d-86b4-182b0f1636c5"
     data-name="FND BG"
     inkscape:label="Baseplate Background">
    <rect
       width="135"
       height="380"
       fill="url(#e177933e-b46b-4a47-9930-05c1f1d4149c)"
       id="rect9"
       inkscape:label="rect9" />
  </g>
  <g
     id="aa880d18-cfe8-4bd2-bda2-afb179f11477"
     data-name="FND GRAPH"
     style="display:inline"
     inkscape:label="Drawings">
    <rect
       x="5.17486"
       y="309.03012"
       width="124.65028"
       height="39.19244"
       rx="2.83465"
       fill="#1f1f1f"
       id="rect12"
       inkscape:label="AUDIO OUT BG" />
    <g
       id="g22"
       inkscape:label="LOGO VCV">
      <path
         d="m 59.36311,359.753 a 0.91214,0.91214 0 0 1 -0.8158,-0.50418 L 55.583,353.32023 a 0.91209213,0.91209213 0 0 1 1.6316,-0.8158 l 2.14848,4.297 2.14848,-4.297 a 0.9121,0.9121 0 0 1 1.63161,0.8158 l -2.96429,5.92857 a 0.91211,0.91211 0 0 1 -0.81577,0.5042 z"
         fill="#1f1f1f"
         id="path14" />
      <path
         d="m 75.64457,359.753 a 0.91213,0.91213 0 0 1 -0.8158,-0.50418 l -2.96428,-5.92857 a 0.91209213,0.91209213 0 0 1 1.6316,-0.8158 l 2.14848,4.297 2.14848,-4.297 a 0.91209213,0.91209213 0 0 1 1.6316,0.8158 l -2.96428,5.92857 a 0.91214,0.91214 0 0 1 -0.8158,0.50418 z"
         fill="#1f1f1f"
         id="path16" />
      <path
         d="m 67.94626,359.753 a 3.87637,3.87637 0 1 1 2.32653,-6.97719 0.91209,0.91209 0 1 1 -1.09557,1.45854 2.034,2.034 0 0 0 -1.231,-0.40991 2.0522,2.0522 0 1 0 0,4.10439 2.034,2.034 0 0 0 1.231,-0.40991 0.91209,0.91209 0 1 1 1.09557,1.45854 3.84478,3.84478 0 0 1 -2.32653,0.77554 z"
         fill="#1f1f1f"
         id="path18" />
      <circle
         cx="68.005493"
         cy="355.83102"
         r="1.18571"
         fill="#1f1f1f"
         id="circle20" />
    </g>
    <line
       x1="83.503822"
       y1="250.85185"
       x2="83.503822"
       y2="260.07654"
       fill="none"
       stroke="#1f1f1f"
       stroke-linecap="round"
       stroke-linejoin="round"
       stroke-width="0.8"
       id="line24"
       inkscape:label="Connector SOFT SYNC" />
    <line
       x1="115.50934"
       y1="289.73853"
       x2="115.50934"
       y2="309.87506"
       fill="none"
       stroke="#1f1f1f"
       stroke-linecap="round"
       stroke-linejoin="round"
       stroke-width="0.8"
       id="line26"
       inkscape:label="Connector PWM SQR" />
    <line
       x1="39.700211"
       y1="238"
       x2="33.912552"
       y2="238"
       fill="none"
       stroke="#1f1f1f"
       stroke-linecap="round"
       stroke-linejoin="round"
       stroke-width="0.8"
       id="line28"
       inkscape:label="Connector FM LFM" />
    <line
       x1="15.00384"
       y1="202"
       x2="120.00384"
       y2="202"
       fill="none"
       stroke="#1f1f1f"
       stroke-linecap="round"
       stroke-linejoin="round"
       stroke-width="0.8"
       id="line30"
       inkscape:label="Spacer Big" />
    <g
       id="g40"
       inkscape:label="KNOB PULSE WIDTH"
       style="display:inline">
      <circle
         cx="67.50634"
         cy="166.5"
         r="26.48818"
         fill="none"
         opacity="0.69"
         style="isolation:isolate"
         id="circle32" />
      <path
         d="m 78.30457,184.60266 a 20.94666,20.94666 0 1 0 -21.451,0.0749"
         fill="none"
         stroke="#1f1f1f"
         stroke-linecap="round"
         stroke-miterlimit="10"
         stroke-width="0.8"
         id="path34" />
      <line
         x1="78.304573"
         y1="184.60266"
         x2="67.50634"
         y2="166.5"
         fill="none"
         id="line36" />
      <line
         x1="67.516243"
         y1="145.7012"
         x2="67.516243"
         y2="159.12279"
         fill="none"
         stroke="#1f1f1f"
         stroke-linecap="round"
         stroke-miterlimit="10"
         stroke-width="0.8"
         id="line38" />
    </g>
    <g
       id="g48"
       inkscape:label="KNOB FREQ">
      <circle
         cx="67.633141"
         cy="88.016998"
         r="38.445641"
         fill="none"
         opacity="0.69"
         style="isolation:isolate"
         id="circle42" />
      <path
         d="m 83.306,114.29167 a 30.40253,30.40253 0 1 0 -31.13461,0.10869"
         fill="none"
         stroke="#1f1f1f"
         stroke-linecap="round"
         stroke-miterlimit="10"
         stroke-width="0.8"
         id="path44" />
      <line
         x1="83.305969"
         y1="114.29167"
         x2="67.633141"
         y2="88.016998"
         fill="none"
         id="line46" />
    </g>
    <g
       id="g56"
       inkscape:label="KNOB FM">
      <line
         x1="19.50939"
         y1="250.87459"
         x2="19.50939"
         y2="260.07654"
         fill="none"
         stroke="#1f1f1f"
         stroke-linecap="round"
         stroke-linejoin="round"
         stroke-width="0.8"
         id="line50" />
      <line
         x1="19.50939"
         y1="226.54018"
         x2="19.50939"
         y2="238.01958"
         fill="none"
         stroke="#1f1f1f"
         stroke-linecap="round"
         stroke-linejoin="round"
         id="line52" />
      <path
         d="m 11.35593,246.15346 a 11.53074,11.53074 0 1 1 16.30692,0"
         fill="none"
         stroke="#1f1f1f"
         stroke-linecap="round"
         stroke-linejoin="round"
         id="path54" />
    </g>
    <path
       d="M 27.66285,246.15346 19.50939,238"
       fill="none"
       id="path58" />
    <path
       d="m 19.50939,238 -8.15346,8.15346"
       fill="none"
       id="path60" />
    <g
       id="g68"
       style="display:inline"
       inkscape:label="KNOB PWM">
      <line
         x1="115.50638"
         y1="250.87459"
         x2="115.50638"
         y2="260.07654"
         fill="none"
         stroke="#1f1f1f"
         stroke-linecap="round"
         stroke-linejoin="round"
         stroke-width="0.8"
         id="line62" />
      <line
         x1="115.50638"
         y1="226.54018"
         x2="115.50638"
         y2="238.01958"
         fill="none"
         stroke="#1f1f1f"
         stroke-linecap="round"
         stroke-linejoin="round"
         id="line64" />
      <path
         d="m 107.35292,246.15346 a 11.53074,11.53074 0 1 1 16.30693,0"
         fill="none"
         stroke="#1f1f1f"
         stroke-linecap="round"
         stroke-linejoin="round"
         id="path66" />
    </g>
  </g>
  <g
     id="fa53a534-7e67-46f9-bb82-6d4962d493ba"
     data-name="components"
     inkscape:groupmode="layer"
     style="display:none"
     inkscape:label="Components">
    <circle
       id="eeb44770-dee8-418f-8dcd-f36b7f0f00a1"
       data-name="Freq#SmallLight"
       cx="91.796944"
       cy="48.5079"
       r="3"
       style="fill:#ff00ff" />
    <circle
       id="a5cfce7f-fe51-496b-b857-e58d5c4c6bd4"
       data-name="pw#RoundLargeBlackKnob"
       cx="67.506348"
       cy="166.5"
       r="5"
       style="fill:#ff0000" />
    <circle
       id="a2b7d26d-cf28-4002-b799-20b6cfdb0d84"
       data-name="Soft#LEDButton"
       cx="83.509338"
       cy="238"
       r="5"
       style="fill:#ff0000" />
    <circle
       id="e0311624-14c1-4e8e-8557-36d615817f1d"
       data-name="Lfm#LEDButton"
       cx="51.509338"
       cy="238"
       r="5"
       style="fill:#ff0000" />
    <circle
       id="afe7ff05-809e-4034-9f5e-9a74f4549133"
       data-name="Sync#PJ301MPort"
       cx="83.509338"
       cy="286"
       r="5"
       style="fill:#00ff00" />
    <circle
       id="e48568ea-fa1f-4f55-a910-6cafbcf2dd7f"
       data-name="Tri#PJ301MPort"
       cx="51.509338"
       cy="334"
       r="5"
       style="fill:#0000ff" />
    <circle
       id="f2084f0d-f9d6-40d8-9777-c3b3c474d4b5"
       data-name="Sin#PJ301MPort"
       cx="19.50939"
       cy="334"
       r="5"
       style="fill:#0000ff" />
    <circle
       id="b2d2926b-63e5-4cee-bc32-10723632ffec"
       data-name="Saw#PJ301MPort"
       cx="83.509338"
       cy="334"
       r="5"
       style="fill:#0000ff" />
    <circle
       id="a315d13b-dc53-4eaf-bde6-30eac39fcbdf"
       data-name="Pitch#PJ301MPort"
       cx="51.509338"
       cy="286"
       r="5"
       style="fill:#00ff00" />
    <circle
       id="f627e372-8b9b-4434-b899-3cf6d25b052d"
       data-name="Pwm#PJ301MPort"
       cx="115.59991"
       cy="286"
       r="5"
       style="fill:#00ff00" />
    <circle
       id="b3a627e6-2c38-4022-9965-f762a4bf17a9"
       data-name="Sqr#PJ301MPort"
       cx="115.50934"
       cy="334"
       r="5"
       style="fill:#0000ff" />
    <circle
       id="e52b4bfc-b25e-4156-9f1f-2d30338e8107"
       data-name="PwmCv#Trimpot"
       cx="115.50638"
       cy="238"
       r="5"
       style="fill:#ff0000" />
    <circle
       id="ac17fe1a-f789-4784-aa3a-781fc99ae73a"
       data-name="Freq#RoundHugeBlackKnob"
       cx="67.633141"
       cy="88.016998"
       r="5"
       style="fill:#ff0000" />
    <circle
       id="fe499126-b4fb-4162-8957-38fadff3f33e"
       data-name="Fm#PJ301MPort"
       cx="19.50939"
       cy="286"
       r="5"
       style="fill:#00ff00" />
    <circle
       id="acc0b878-9356-4555-9f39-64d69ce4b4b8"
       data-name="FmCv#Trimpot"
       cx="19.50939"
       cy="238"
       r="5"
       style="fill:#ff0000" />
  </g>
  <g
     id="g1298"
     data-name="FND TXT"
     style="display:none"
     inkscape:label="Labels VCV">
    <g
       id="g1172"
       inkscape:label="BUTTON SOFT">
      <path
         d="m 74.19824,221.52686 a 0.39116,0.39116 0 0 1 -0.16211,-0.31836 0.40312,0.40312 0 0 1 0.63672,-0.31153 2.05554,2.05554 0 0 0 1.32813,0.4878 c 0.51464,0 0.83984,-0.24415 0.83984,-0.5962 v -0.0137 c 0,-0.33838 -0.18945,-0.52148 -1.07031,-0.7251 -1.00977,-0.24365 -1.5791,-0.542 -1.5791,-1.416 v -0.0132 a 1.45075,1.45075 0 0 1 1.61914,-1.37549 2.612,2.612 0 0 1 1.50439,0.44043 0.37568,0.37568 0 0 1 0.18311,0.332 0.38765,0.38765 0 0 1 -0.39307,0.38623 0.40383,0.40383 0 0 1 -0.2168,-0.061 1.97149,1.97149 0 0 0 -1.09082,-0.35937 c -0.48779,0 -0.772,0.251 -0.772,0.5625 v 0.0137 c 0,0.36572 0.2168,0.52832 1.13086,0.74512 1.00293,0.24414 1.51758,0.603 1.51758,1.38867 v 0.0137 c 0,0.8877 -0.69727,1.416 -1.69336,1.416 a 2.95282,2.95282 0 0 1 -1.7822,-0.59619 z"
         fill="#1f1f1f"
         id="path1164" />
      <path
         d="m 78.59375,219.69775 v -0.0137 a 2.48,2.48 0 0 1 4.95947,-0.0132 v 0.0132 a 2.48,2.48 0 0 1 -4.95947,0.0137 z m 4.08594,0 v -0.0137 a 1.62513,1.62513 0 0 0 -1.6128,-1.687 1.60252,1.60252 0 0 0 -1.59912,1.67383 v 0.0132 a 1.61919,1.61919 0 0 0 1.61231,1.68018 1.59671,1.59671 0 0 0 1.59961,-1.66652 z"
         fill="#1f1f1f"
         id="path1166" />
      <path
         d="m 84.77051,217.73291 a 0.4135,0.4135 0 0 1 0.41992,-0.41992 h 2.76416 a 0.3794,0.3794 0 0 1 0,0.75879 h -2.35107 v 1.29394 h 2.04589 a 0.3794,0.3794 0 1 1 0,0.75879 h -2.04589 v 1.55127 a 0.41652,0.41652 0 0 1 -0.833,0 z"
         fill="#1f1f1f"
         id="path1168" />
      <path
         d="m 90.68848,218.08545 h -1.15186 a 0.38623,0.38623 0 0 1 0,-0.77246 H 92.687 a 0.38629,0.38629 0 0 1 0,0.77246 h -1.15868 v 3.59033 a 0.42,0.42 0 0 1 -0.83984,0 z"
         fill="#1f1f1f"
         id="path1170" />
    </g>
    <g
       id="g1180"
       inkscape:label="BUTTON LFM">
      <path
         d="m 44.7085,218.73584 a 0.41651,0.41651 0 0 1 0.833,0 v 3.604 h 2.148 a 0.3794,0.3794 0 1 1 0,0.75879 h -2.561 a 0.4135,0.4135 0 0 1 -0.41992,-0.41992 z"
         fill="#1f1f1f"
         id="path1174" />
      <path
         d="m 49.06152,218.77637 a 0.41362,0.41362 0 0 1 0.41993,-0.42041 h 2.76416 a 0.3794,0.3794 0 0 1 0,0.75879 h -2.35108 v 1.29443 h 2.04639 a 0.3794,0.3794 0 0 1 0,0.75879 h -2.04639 v 1.55127 a 0.41652,0.41652 0 0 1 -0.833,0 z"
         fill="#1f1f1f"
         id="path1176" />
      <path
         d="m 53.644,218.749 a 0.41772,0.41772 0 0 1 0.41992,-0.41992 h 0.0879 a 0.43807,0.43807 0 0 1 0.38623,0.22363 l 1.43652,2.249 1.44287,-2.25586 a 0.41976,0.41976 0 0 1 0.3794,-0.2168 h 0.08789 a 0.41814,0.41814 0 0 1 0.42041,0.41992 v 3.97022 a 0.41212,0.41212 0 0 1 -0.42041,0.41308 0.41932,0.41932 0 0 1 -0.41309,-0.41308 v -2.8457 l -1.1582,1.74121 a 0.3895,0.3895 0 0 1 -0.69825,0 l -1.15136,-1.72754 v 2.83886 a 0.40484,0.40484 0 0 1 -0.41358,0.40625 0.399,0.399 0 0 1 -0.40625,-0.40625 z"
         fill="#1f1f1f"
         id="path1178" />
    </g>
    <g
       id="g1190"
       inkscape:label="KNOB FREQ"
       style="display:none">
      <path
         d="m 55.99561,45.78955 a 0.50991,0.50991 0 0 1 0.51757,-0.51758 H 59.919 a 0.46753,0.46753 0 0 1 0,0.93506 h -2.89654 v 1.59424 H 59.543 a 0.46729,0.46729 0 1 1 0,0.93457 h -2.52054 v 1.91162 a 0.51345,0.51345 0 0 1 -1.02685,0 z"
         fill="#1f1f1f"
         id="path1182" />
      <path
         d="m 61.56982,45.78955 a 0.50992,0.50992 0 0 1 0.51758,-0.51758 h 2.08692 a 2.35521,2.35521 0 0 1 1.686,0.58448 1.76678,1.76678 0 0 1 0.48389,1.26025 v 0.0166 a 1.72912,1.72912 0 0 1 -1.32715,1.74463 l 1.11865,1.41064 a 0.59458,0.59458 0 0 1 0.167,0.39209 0.4842,0.4842 0 0 1 -0.49267,0.47559 0.587,0.587 0 0 1 -0.501,-0.26709 l -1.41846,-1.811 h -1.2939 v 1.56934 a 0.51345,0.51345 0 0 1 -1.02686,0 z m 2.5293,2.37891 c 0.73438,0 1.20166,-0.38379 1.20166,-0.97657 v -0.0166 c 0,-0.626 -0.45068,-0.96826 -1.21,-0.96826 h -1.4941 v 1.96143 z"
         fill="#1f1f1f"
         id="path1184" />
      <path
         d="m 67.8252,50.59717 v -4.80762 a 0.50991,0.50991 0 0 1 0.51757,-0.51758 h 3.397 a 0.46374,0.46374 0 0 1 0.45947,0.45948 0.45823,0.45823 0 0 1 -0.45947,0.459 h -2.8877 v 1.519 h 2.51221 a 0.46467,0.46467 0 0 1 0.459,0.46729 0.45578,0.45578 0 0 1 -0.459,0.45068 h -2.51223 v 1.56934 h 2.92969 a 0.46287,0.46287 0 0 1 0.459,0.459 0.45751,0.45751 0 0 1 -0.459,0.459 h -3.439 A 0.50991,0.50991 0 0 1 67.8252,50.59717 Z"
         fill="#1f1f1f"
         id="path1186" />
      <path
         d="m 73.18506,48.21 v -0.0166 a 3.055,3.055 0 0 1 6.10937,-0.0166 v 0.0166 a 3.02264,3.02264 0 0 1 -0.59228,1.79443 l 0.37549,0.30909 a 0.50252,0.50252 0 0 1 0.19189,0.40039 0.49,0.49 0 0 1 -0.84326,0.34228 l -0.417,-0.37549 A 3.03841,3.03841 0 0 1 76.23144,51.21488 2.96566,2.96566 0 0 1 73.18506,48.21 Z m 3.15478,0.76807 a 0.49167,0.49167 0 0 1 0.48389,-0.49268 0.49879,0.49879 0 0 1 0.35889,0.15039 l 0.75146,0.68457 A 2.19577,2.19577 0 0 0 78.21777,48.21 v -0.0166 a 2.0015,2.0015 0 0 0 -1.98632,-2.07813 1.9739,1.9739 0 0 0 -1.96973,2.06153 v 0.0166 a 1.999,1.999 0 0 0 2.99609,1.80273 L 76.53174,49.37895 A 0.50424,0.50424 0 0 1 76.33984,48.978 Z"
         fill="#1f1f1f"
         id="path1188" />
    </g>
    <g
       id="g1212"
       inkscape:label="KNOB PULSE WIDTH">
      <path
         d="m 37.40771,133.29443 a 0.50991,0.50991 0 0 1 0.51758,-0.51757 h 1.78614 a 1.96114,1.96114 0 0 1 2.22021,1.95314 v 0.0171 c 0,1.31006 -1.05176,1.99463 -2.33691,1.99463 h -1.16016 v 1.41064 a 0.51345,0.51345 0 0 1 -1.02686,0 z m 2.22022,2.521 c 0.77637,0 1.26074,-0.43408 1.26074,-1.04346 v -0.0166 c 0,-0.68457 -0.49267,-1.04346 -1.26074,-1.04346 h -1.19336 v 2.10352 z"
         fill="#1f1f1f"
         id="path1192" />
      <path
         d="m 43.0498,136.14062 v -2.896 a 0.51345,0.51345 0 0 1 1.02686,0 v 2.85449 c 0,1.085 0.55908,1.66065 1.47754,1.66065 0.90967,0 1.46875,-0.54248 1.46875,-1.61915 v -2.896 a 0.51344,0.51344 0 0 1 1.02685,0 v 2.84619 a 2.33338,2.33338 0 0 1 -2.51269,2.62061 2.30333,2.30333 0 0 1 -2.48731,-2.57079 z"
         fill="#1f1f1f"
         id="path1194" />
      <path
         d="m 49.71094,133.24463 a 0.51344,0.51344 0 0 1 1.02685,0 v 4.43994 h 2.646 a 0.46753,0.46753 0 0 1 0,0.93506 h -3.15527 a 0.50991,0.50991 0 0 1 -0.51758,-0.51758 z"
         fill="#1f1f1f"
         id="path1196" />
      <path
         d="m 54.97852,137.96875 a 0.47879,0.47879 0 0 1 0.28369,-0.86816 0.47285,0.47285 0 0 1 0.30029,0.0918 2.53594,2.53594 0 0 0 1.63623,0.60108 c 0.63428,0 1.03467,-0.30078 1.03467,-0.73487 v -0.0166 c 0,-0.417 -0.2334,-0.64258 -1.31836,-0.89306 -1.24365,-0.3003 -1.94483,-0.66748 -1.94483,-1.74414 v -0.0171 a 1.78689,1.78689 0 0 1 1.99463,-1.69434 3.21527,3.21527 0 0 1 1.853,0.543 0.46278,0.46278 0 0 1 0.2251,0.40869 0.47707,0.47707 0 0 1 -0.48389,0.47559 0.49883,0.49883 0 0 1 -0.26709,-0.0747 2.42719,2.42719 0 0 0 -1.34375,-0.44238 c -0.60107,0 -0.95166,0.30859 -0.95166,0.69238 v 0.0171 c 0,0.45068 0.26709,0.65088 1.394,0.918 1.23536,0.30029 1.86963,0.74267 1.86963,1.71093 v 0.0166 c 0,1.09375 -0.85986,1.74462 -2.08691,1.74462 a 3.6383,3.6383 0 0 1 -2.19475,-0.73443 z"
         fill="#1f1f1f"
         id="path1198" />
      <path
         d="m 60.68359,138.10205 v -4.80762 a 0.50991,0.50991 0 0 1 0.51758,-0.51757 h 3.397 a 0.46373,0.46373 0 0 1 0.45948,0.45947 0.45824,0.45824 0 0 1 -0.45948,0.459 h -2.88772 v 1.519 h 2.51221 a 0.46467,0.46467 0 0 1 0.459,0.46728 0.45578,0.45578 0 0 1 -0.459,0.45068 h -2.51221 v 1.56934 h 2.92969 a 0.46289,0.46289 0 0 1 0.459,0.459 0.45751,0.45751 0 0 1 -0.459,0.459 h -3.439 a 0.50992,0.50992 0 0 1 -0.51755,-0.51758 z"
         fill="#1f1f1f"
         id="path1200" />
      <path
         d="m 68.42432,133.43652 a 0.54119,0.54119 0 0 1 -0.04151,-0.20019 0.51328,0.51328 0 0 1 0.52588,-0.501 0.52378,0.52378 0 0 1 0.50928,0.37549 l 1.34375,4.01465 1.31836,-3.99805 a 0.54181,0.54181 0 0 1 0.51758,-0.40869 h 0.07519 a 0.53461,0.53461 0 0 1 0.51758,0.40869 l 1.31885,3.99805 1.34375,-4.023 a 0.52378,0.52378 0 0 1 0.50049,-0.36719 0.50207,0.50207 0 0 1 0.50927,0.49219 0.59327,0.59327 0 0 1 -0.0498,0.209 l -1.728,4.84082 a 0.57208,0.57208 0 0 1 -0.53418,0.42578 h -0.1001 a 0.55309,0.55309 0 0 1 -0.52588,-0.42578 l -1.30175,-3.81445 -1.30225,3.81445 a 0.56223,0.56223 0 0 1 -0.53418,0.42578 h -0.1001 a 0.56959,0.56959 0 0 1 -0.53418,-0.42578 z"
         fill="#1f1f1f"
         id="path1202" />
      <path
         d="m 78.09619,133.24463 a 0.51345,0.51345 0 0 1 1.02686,0 v 4.90771 a 0.51345,0.51345 0 0 1 -1.02686,0 z"
         fill="#1f1f1f"
         id="path1204" />
      <path
         d="m 80.874,133.29443 a 0.50991,0.50991 0 0 1 0.51758,-0.51757 h 1.66113 a 2.91237,2.91237 0 0 1 3.105,2.90478 v 0.0166 a 2.92487,2.92487 0 0 1 -3.105,2.92139 H 81.3916 a 0.50992,0.50992 0 0 1 -0.51758,-0.51758 z m 2.17871,4.39014 a 1.90419,1.90419 0 0 0 2.02832,-1.96973 v -0.0166 a 1.91708,1.91708 0 0 0 -2.02832,-1.98633 h -1.15183 v 3.97266 z"
         fill="#1f1f1f"
         id="path1206" />
      <path
         d="m 88.67041,133.72852 h -1.419 a 0.47583,0.47583 0 1 1 0,-0.95166 h 3.88086 a 0.47591,0.47591 0 0 1 0,0.95166 h -1.42719 v 4.42382 a 0.51741,0.51741 0 0 1 -1.03467,0 z"
         fill="#1f1f1f"
         id="path1208" />
      <path
         d="m 92.76172,133.24463 a 0.51344,0.51344 0 0 1 1.02685,0 v 1.96142 h 2.7876 v -1.96142 a 0.51345,0.51345 0 0 1 1.02686,0 v 4.90771 a 0.51345,0.51345 0 0 1 -1.02686,0 v -1.99511 h -2.7876 v 1.99511 a 0.51345,0.51345 0 0 1 -1.02685,0 z"
         fill="#1f1f1f"
         id="path1210" />
    </g>
    <g
       id="g1218"
       inkscape:label="CV IN FM">
      <path
         d="m 14.88525,266.64209 a 0.41381,0.41381 0 0 1 0.41993,-0.41992 h 2.76416 a 0.3794,0.3794 0 0 1 0,0.75879 h -2.35059 v 1.29394 h 2.0459 a 0.3794,0.3794 0 0 1 0,0.75879 h -2.0459 v 1.55131 a 0.41676,0.41676 0 0 1 -0.8335,0 z"
         fill="#1f1f1f"
         id="path1214" />
      <path
         d="m 19.46777,266.61523 a 0.41742,0.41742 0 0 1 0.41993,-0.41992 h 0.08789 a 0.43806,0.43806 0 0 1 0.38623,0.22364 l 1.43652,2.249 1.44287,-2.25586 a 0.4183,0.4183 0 0 1 0.3794,-0.2168 H 23.709 a 0.41773,0.41773 0 0 1 0.41993,0.41992 V 270.585 A 0.41242,0.41242 0 0 1 23.709,270.99858 0.41985,0.41985 0 0 1 23.29543,270.585 v -2.84521 l -1.15871,1.74121 a 0.38872,0.38872 0 0 1 -0.69727,0 l -1.15234,-1.72754 v 2.83838 a 0.40483,0.40483 0 0 1 -0.41309,0.40674 0.39909,0.39909 0 0 1 -0.40625,-0.40674 z"
         fill="#1f1f1f"
         id="path1216" />
    </g>
    <g
       id="g1230"
       inkscape:label="CV IN V/OCT">
      <path
         d="M 41.6875,270.69336 40.02734,266.791 a 0.45988,0.45988 0 0 1 -0.04736,-0.19629 0.41063,0.41063 0 0 1 0.41992,-0.40625 0.43735,0.43735 0 0 1 0.42725,0.29785 l 1.36816,3.42138 1.38869,-3.44869 a 0.42966,0.42966 0 0 1 0.39991,-0.2705 0.40375,0.40375 0 0 1 0.41357,0.39941 0.477,0.477 0 0 1 -0.041,0.17627 l -1.66651,3.9292 a 0.49651,0.49651 0 0 1 -0.481,0.33887 h -0.04785 a 0.49358,0.49358 0 0 1 -0.47362,-0.33889 z"
         fill="#1f1f1f"
         id="path1220" />
      <path
         d="m 44.37988,271.3916 2.77149,-5.67773 a 0.32256,0.32256 0 0 1 0.61621,0.12207 0.53851,0.53851 0 0 1 -0.03369,0.1626 l -2.77784,5.67724 a 0.30819,0.30819 0 0 1 -0.291,0.18994 0.32223,0.32223 0 0 1 -0.3252,-0.312 0.38641,0.38641 0 0 1 0.04003,-0.16212 z"
         fill="#1f1f1f"
         id="path1222" />
      <path
         d="m 48.14014,268.60693 v -0.0137 a 2.48,2.48 0 0 1 4.95947,-0.0132 v 0.0132 a 2.48,2.48 0 0 1 -4.95947,0.0137 z m 4.08545,0 v -0.0137 a 1.625,1.625 0 0 0 -1.61231,-1.687 1.60252,1.60252 0 0 0 -1.59912,1.67383 v 0.0132 a 1.619,1.619 0 0 0 1.61279,1.68018 1.59651,1.59651 0 0 0 1.59864,-1.66652 z"
         fill="#1f1f1f"
         id="path1224" />
      <path
         d="m 54.0791,268.60693 v -0.0137 a 2.39977,2.39977 0 0 1 2.44531,-2.45264 2.48646,2.48646 0 0 1 1.626,0.53516 0.41709,0.41709 0 0 1 0.16309,0.332 0.4166,0.4166 0 0 1 -0.66407,0.3252 1.72349,1.72349 0 0 0 -1.13183,-0.42676 1.59617,1.59617 0 0 0 -1.56446,1.67383 v 0.0132 a 1.59778,1.59778 0 0 0 1.56446,1.68018 1.69714,1.69714 0 0 0 1.18554,-0.4541 0.38366,0.38366 0 0 1 0.251,-0.0947 0.39659,0.39659 0 0 1 0.39307,0.38623 0.40167,0.40167 0 0 1 -0.13526,0.29834 2.42559,2.42559 0 0 1 -1.72119,0.63672 2.38475,2.38475 0 0 1 -2.41166,-2.43894 z"
         fill="#1f1f1f"
         id="path1226" />
      <path
         d="m 60.69824,266.99463 h -1.15185 a 0.38623,0.38623 0 0 1 0,-0.77246 h 3.15039 a 0.38629,0.38629 0 0 1 0,0.77246 h -1.15869 v 3.59037 a 0.42,0.42 0 0 1 -0.83985,0 z"
         fill="#1f1f1f"
         id="path1228" />
    </g>
    <g
       id="g1240"
       inkscape:label="CV IN SYNC">
      <path
         d="m 74.0166,270.436 a 0.39116,0.39116 0 0 1 -0.16211,-0.31836 0.40312,0.40312 0 0 1 0.63672,-0.31153 2.05554,2.05554 0 0 0 1.32813,0.4878 c 0.51464,0 0.83984,-0.24415 0.83984,-0.5962 v -0.0137 c 0,-0.33838 -0.18945,-0.52148 -1.07031,-0.7251 -1.00977,-0.24365 -1.5791,-0.542 -1.5791,-1.416 v -0.0132 a 1.45075,1.45075 0 0 1 1.61914,-1.37549 2.612,2.612 0 0 1 1.50439,0.44043 0.37568,0.37568 0 0 1 0.18311,0.332 0.38766,0.38766 0 0 1 -0.39307,0.38623 0.40383,0.40383 0 0 1 -0.2168,-0.061 1.97149,1.97149 0 0 0 -1.09082,-0.35937 c -0.48779,0 -0.772,0.251 -0.772,0.5625 v 0.0137 c 0,0.36572 0.2168,0.52832 1.13086,0.74512 1.00293,0.24414 1.51758,0.603 1.51758,1.38867 v 0.0137 c 0,0.8877 -0.69727,1.416 -1.69336,1.416 a 2.95282,2.95282 0 0 1 -1.7822,-0.5962 z"
         fill="#1f1f1f"
         id="path1232" />
      <path
         d="m 79.98828,269.12207 -1.63281,-2.24268 a 0.52009,0.52009 0 0 1 -0.09473,-0.2915 0.40478,0.40478 0 0 1 0.41992,-0.39941 0.4795,0.4795 0 0 1 0.40625,0.25048 l 1.32129,1.90381 1.3418,-1.91064 a 0.47819,0.47819 0 0 1 0.39941,-0.25049 0.39458,0.39458 0 0 1 0.40625,0.40625 0.5059,0.5059 0 0 1 -0.11474,0.29834 l -1.61963,2.21533 v 1.4834 a 0.41652,0.41652 0 0 1 -0.833,0 z"
         fill="#1f1f1f"
         id="path1234" />
      <path
         d="m 83.53809,266.61523 a 0.41814,0.41814 0 0 1 0.42041,-0.41992 h 0.08838 a 0.52524,0.52524 0 0 1 0.43359,0.24365 l 2.37109,3.06885 v -2.91308 a 0.40968,0.40968 0 0 1 0.81934,0 v 3.98339 a 0.40484,0.40484 0 0 1 -0.40625,0.41358 h -0.03418 a 0.52486,0.52486 0 0 1 -0.43359,-0.25049 L 84.3584,267.584 v 3.00782 a 0.41017,0.41017 0 0 1 -0.82031,0 z"
         fill="#1f1f1f"
         id="path1236" />
      <path
         d="m 88.88574,268.60693 v -0.0137 a 2.39977,2.39977 0 0 1 2.44531,-2.45264 2.48644,2.48644 0 0 1 1.626,0.53516 0.41709,0.41709 0 0 1 0.16309,0.332 0.4166,0.4166 0 0 1 -0.66407,0.3252 1.72349,1.72349 0 0 0 -1.13183,-0.42676 1.59616,1.59616 0 0 0 -1.56445,1.67383 v 0.0132 a 1.59777,1.59777 0 0 0 1.56445,1.68018 1.69718,1.69718 0 0 0 1.18555,-0.4541 0.38361,0.38361 0 0 1 0.251,-0.0947 0.39659,0.39659 0 0 1 0.39307,0.38623 0.40167,0.40167 0 0 1 -0.13526,0.29834 2.42559,2.42559 0 0 1 -1.72119,0.63672 2.38475,2.38475 0 0 1 -2.41167,-2.43894 z"
         fill="#1f1f1f"
         id="path1238" />
    </g>
    <g
       id="g1248"
       inkscape:label="CV IN PWM">
      <path
         d="m 107.02441,266.64209 a 0.41351,0.41351 0 0 1 0.41993,-0.41992 h 1.4497 a 1.59207,1.59207 0 0 1 1.80225,1.58545 v 0.0137 c 0,1.06348 -0.85352,1.61914 -1.897,1.61914 h -0.9419 v 1.14457 a 0.41652,0.41652 0 0 1 -0.833,0 z m 1.80176,2.04639 c 0.63037,0 1.02344,-0.35254 1.02344,-0.84717 v -0.0132 c 0,-0.55566 -0.3999,-0.84716 -1.02344,-0.84716 h -0.96875 v 1.70752 z"
         fill="#1f1f1f"
         id="path1242" />
      <path
         d="m 111.44385,266.75732 a 0.44168,0.44168 0 0 1 -0.0337,-0.16259 0.41622,0.41622 0 0 1 0.42675,-0.40625 0.42444,0.42444 0 0 1 0.41309,0.30468 l 1.09082,3.25879 1.07031,-3.24511 a 0.43991,0.43991 0 0 1 0.41992,-0.332 h 0.0615 a 0.434,0.434 0 0 1 0.41992,0.332 l 1.07031,3.24511 1.09082,-3.26562 a 0.42456,0.42456 0 0 1 0.40625,-0.29785 0.40775,0.40775 0 0 1 0.41358,0.39941 0.48423,0.48423 0 0 1 -0.0405,0.16943 l -1.40234,3.9292 a 0.46435,0.46435 0 0 1 -0.4336,0.34571 h -0.0815 a 0.44885,0.44885 0 0 1 -0.42676,-0.34571 l -1.05713,-3.0957 -1.05664,3.0957 a 0.45681,0.45681 0 0 1 -0.43359,0.34571 h -0.0815 a 0.46288,0.46288 0 0 1 -0.4336,-0.34571 z"
         fill="#1f1f1f"
         id="path1244" />
      <path
         d="m 119.32861,266.61523 a 0.41773,0.41773 0 0 1 0.41993,-0.41992 h 0.0884 a 0.43786,0.43786 0 0 1 0.38575,0.22364 l 1.43652,2.249 1.44287,-2.25586 a 0.41883,0.41883 0 0 1 0.3794,-0.2168 h 0.0879 a 0.41784,0.41784 0 0 1 0.42041,0.41992 v 3.96979 a 0.41254,0.41254 0 0 1 -0.42041,0.41358 0.41943,0.41943 0 0 1 -0.41309,-0.41358 v -2.84521 l -1.1582,1.74121 a 0.3895,0.3895 0 0 1 -0.69825,0 l -1.15136,-1.72754 v 2.83838 a 0.40524,0.40524 0 0 1 -0.41358,0.40674 0.39939,0.39939 0 0 1 -0.40625,-0.40674 z"
         fill="#1f1f1f"
         id="path1246" />
    </g>
    <g
       id="g1256"
       inkscape:label="AUDIO OUT TRI">
      <path
         d="m 47.208,315.12891 h -1.00243 a 0.481,0.481 0 1 1 0,-0.96192 h 3.04834 a 0.481,0.481 0 0 1 0,0.96192 h -1.00245 v 3.2998 a 0.52173,0.52173 0 0 1 -1.04345,0 z"
         fill="#f0f0f0"
         id="path1250" />
      <path
         d="m 50.644,314.68848 a 0.51738,0.51738 0 0 1 0.52149,-0.52149 H 52.812 a 1.89027,1.89027 0 0 1 1.38184,0.481 1.48923,1.48923 0 0 1 0.40625,1.084 v 0.0137 a 1.44769,1.44769 0 0 1 -0.94824,1.44287 l 0.72509,0.88086 a 0.60914,0.60914 0 0 1 0.16944,0.39941 0.48575,0.48575 0 0 1 -0.49463,0.48145 0.6249,0.6249 0 0 1 -0.51514,-0.271 l -1.01611,-1.2876 H 51.687 v 1.03711 a 0.5215,0.5215 0 1 1 -1.043,0 z m 2.1001,1.78222 c 0.50781,0 0.79932,-0.27148 0.79932,-0.6709 v -0.0137 c 0,-0.44726 -0.31153,-0.67773 -0.81983,-0.67773 H 51.687 v 1.3623 z"
         fill="#f0f0f0"
         id="path1252" />
      <path
         d="m 55.82324,314.648 a 0.5215,0.5215 0 1 1 1.043,0 v 3.78076 a 0.5215,0.5215 0 1 1 -1.043,0 z"
         fill="#f0f0f0"
         id="path1254" />
    </g>
    <g
       id="g1264"
       inkscape:label="AUDIO OUT SIN">
      <path
         d="m 13.78174,318.4082 a 0.48745,0.48745 0 0 1 -0.19629,-0.39306 0.48,0.48 0 0 1 0.48779,-0.481 0.501,0.501 0 0 1 0.29785,0.0947 2.0021,2.0021 0 0 0 1.21289,0.42675 c 0.42676,0 0.68409,-0.16894 0.68409,-0.44726 v -0.0132 c 0,-0.26416 -0.1626,-0.3999 -0.95508,-0.603 -0.95508,-0.24414 -1.57178,-0.5083 -1.57178,-1.4502 v -0.0132 a 1.48345,1.48345 0 0 1 1.65967,-1.42969 2.75073,2.75073 0 0 1 1.50439,0.42041 0.48277,0.48277 0 0 1 -0.25781,0.894 0.49736,0.49736 0 0 1 -0.26416,-0.0747 1.97239,1.97239 0 0 0 -0.9956,-0.31836 c -0.39991,0 -0.60987,0.1831 -0.60987,0.41308 v 0.0137 c 0,0.31152 0.20313,0.41357 1.02295,0.62353 0.96192,0.25049 1.50391,0.59619 1.50391,1.42236 v 0.0137 c 0,0.94189 -0.71826,1.47021 -1.74121,1.47021 a 3.061,3.061 0 0 1 -1.78174,-0.56879 z"
         fill="#f0f0f0"
         id="path1258" />
      <path
         d="m 18.47461,314.648 a 0.5215,0.5215 0 1 1 1.043,0 v 3.78076 a 0.5215,0.5215 0 1 1 -1.043,0 z"
         fill="#f0f0f0"
         id="path1260" />
      <path
         d="m 20.92334,314.66162 a 0.5179,0.5179 0 0 1 0.522,-0.522 h 0.1084 a 0.64608,0.64608 0 0 1 0.542,0.30517 l 2.01221,2.64209 v -2.4458 a 0.5149,0.5149 0 0 1 1.02979,0 v 3.77392 a 0.51779,0.51779 0 0 1 -0.522,0.52148 H 24.582 A 0.64676,0.64676 0 0 1 24.04,318.6318 l -2.08643,-2.73731 v 2.54053 a 0.51514,0.51514 0 1 1 -1.03027,0 z"
         fill="#f0f0f0"
         id="path1262" />
    </g>
    <g
       id="g1272"
       inkscape:label="AUDIO OUT SAW">
      <path
         d="m 75.47217,318.4082 a 0.48745,0.48745 0 0 1 -0.19629,-0.39306 0.48,0.48 0 0 1 0.48779,-0.481 0.501,0.501 0 0 1 0.29785,0.0947 2.00208,2.00208 0 0 0 1.21289,0.42675 c 0.42676,0 0.68409,-0.16894 0.68409,-0.44726 v -0.0132 c 0,-0.26416 -0.1626,-0.3999 -0.95508,-0.603 -0.95508,-0.24414 -1.57178,-0.5083 -1.57178,-1.4502 v -0.0132 a 1.48345,1.48345 0 0 1 1.65967,-1.42969 2.75073,2.75073 0 0 1 1.50439,0.42041 0.48277,0.48277 0 0 1 -0.25781,0.894 0.49736,0.49736 0 0 1 -0.26416,-0.0747 1.9724,1.9724 0 0 0 -0.99561,-0.31836 c -0.3999,0 -0.60986,0.1831 -0.60986,0.41308 v 0.0137 c 0,0.31152 0.20313,0.41357 1.02295,0.62353 0.96191,0.25049 1.50391,0.59619 1.50391,1.42236 v 0.0137 c 0,0.94189 -0.71826,1.47021 -1.74121,1.47021 a 3.061,3.061 0 0 1 -1.78174,-0.56879 z"
         fill="#f0f0f0"
         id="path1266" />
      <path
         d="m 79.7876,318.23877 1.65332,-3.73291 a 0.64412,0.64412 0 0 1 0.60986,-0.41309 h 0.061 a 0.635,0.635 0 0 1 0.60254,0.41309 l 1.65332,3.73291 a 0.51151,0.51151 0 0 1 0.0542,0.21 0.49458,0.49458 0 0 1 -0.49463,0.50147 0.53177,0.53177 0 0 1 -0.50147,-0.35938 l -0.31836,-0.74512 H 81.021 l -0.332,0.7793 a 0.51277,0.51277 0 0 1 -0.48095,0.3252 0.48,0.48 0 0 1 -0.481,-0.4878 0.55591,0.55591 0 0 1 0.06055,-0.22367 z m 2.93359,-1.31445 -0.65723,-1.56494 -0.65722,1.56494 z"
         fill="#f0f0f0"
         id="path1268" />
      <path
         d="m 84.84668,314.83105 a 0.67345,0.67345 0 0 1 -0.04053,-0.19628 0.51786,0.51786 0 0 1 0.53516,-0.50831 0.526,0.526 0 0 1 0.50781,0.37256 l 0.9419,2.90625 0.94873,-2.8789 a 0.549,0.549 0 0 1 0.52832,-0.41358 h 0.08105 a 0.542,0.542 0 0 1 0.52881,0.41358 l 0.94824,2.8789 0.9419,-2.90625 a 0.52145,0.52145 0 0 1 0.501,-0.37256 0.50344,0.50344 0 0 1 0.51514,0.50147 0.73536,0.73536 0 0 1 -0.04053,0.20312 l -1.32812,3.72608 a 0.57767,0.57767 0 0 1 -0.542,0.42676 h -0.1084 A 0.5623,0.5623 0 0 1 89.23,318.55713 l -0.93506,-2.7168 -0.93457,2.7168 a 0.56283,0.56283 0 0 1 -0.53564,0.42676 h -0.1084 a 0.57855,0.57855 0 0 1 -0.542,-0.42676 z"
         fill="#f0f0f0"
         id="path1270" />
    </g>
    <g
       id="g1280"
       style="display:inline"
       inkscape:label="AUDIO OUT SQR">
      <path
         d="m 108.26807,318.4082 a 0.48745,0.48745 0 0 1 -0.19629,-0.39306 0.48,0.48 0 0 1 0.48779,-0.481 0.501,0.501 0 0 1 0.29785,0.0947 2.00208,2.00208 0 0 0 1.21289,0.42675 c 0.42676,0 0.68408,-0.16894 0.68408,-0.44726 v -0.0132 c 0,-0.26416 -0.16259,-0.3999 -0.95507,-0.603 -0.95508,-0.24414 -1.57178,-0.5083 -1.57178,-1.4502 v -0.0132 a 1.48345,1.48345 0 0 1 1.65967,-1.42969 2.75073,2.75073 0 0 1 1.50439,0.42041 0.48277,0.48277 0 0 1 -0.25781,0.894 0.49736,0.49736 0 0 1 -0.26416,-0.0747 1.97243,1.97243 0 0 0 -0.99561,-0.31836 c -0.3999,0 -0.60986,0.1831 -0.60986,0.41308 v 0.0137 c 0,0.31152 0.20313,0.41357 1.02295,0.62353 0.96191,0.25049 1.50391,0.59619 1.50391,1.42236 v 0.0137 c 0,0.94189 -0.71827,1.47021 -1.74122,1.47021 a 3.061,3.061 0 0 1 -1.78173,-0.56879 z"
         fill="#f0f0f0"
         id="path1274" />
      <path
         d="m 112.64746,316.55176 v -0.0137 a 2.52142,2.52142 0 0 1 5.04053,-0.0137 v 0.0137 a 2.43341,2.43341 0 0 1 -0.41992,1.36181 l 0.20312,0.16944 a 0.51211,0.51211 0 0 1 0.18994,0.39306 0.48857,0.48857 0 0 1 -0.83349,0.35205 l -0.25733,-0.23047 a 2.58238,2.58238 0 0 1 -1.40918,0.40674 2.43,2.43 0 0 1 -2.51367,-2.43896 z m 2.46631,0.53515 a 0.49161,0.49161 0 0 1 0.48779,-0.49462 0.48139,0.48139 0 0 1 0.34522,0.14209 l 0.522,0.46777 a 1.6647,1.6647 0 0 0 0.12842,-0.65039 v -0.0137 a 1.44027,1.44027 0 0 0 -1.436,-1.49024 1.41823,1.41823 0 0 0 -1.42285,1.47656 v 0.0137 a 1.44107,1.44107 0 0 0 1.43652,1.49072 1.42,1.42 0 0 0 0.623,-0.12891 l -0.49463,-0.41992 a 0.51249,0.51249 0 0 1 -0.18947,-0.39307 z"
         fill="#f0f0f0"
         id="path1276" />
      <path
         d="m 118.89209,314.68848 a 0.51738,0.51738 0 0 1 0.52148,-0.52149 h 1.64649 a 1.89023,1.89023 0 0 1 1.38183,0.481 1.48923,1.48923 0 0 1 0.40625,1.084 v 0.0137 a 1.44768,1.44768 0 0 1 -0.94824,1.44287 l 0.7251,0.88086 a 0.60918,0.60918 0 0 1 0.16943,0.39941 0.48575,0.48575 0 0 1 -0.49463,0.48145 0.62489,0.62489 0 0 1 -0.51513,-0.271 l -1.01612,-1.2876 h -0.83349 v 1.03711 a 0.5215,0.5215 0 1 1 -1.043,0 z m 2.1001,1.78222 c 0.50781,0 0.79931,-0.27148 0.79931,-0.6709 v -0.0137 c 0,-0.44726 -0.31152,-0.67773 -0.81982,-0.67773 h -1.03662 v 1.3623 z"
         fill="#f0f0f0"
         id="path1278" />
    </g>
    <g
       id="g1296"
       inkscape:label="Title VCO"
       style="display:inline">
      <path
         d="m 56.65527,27.66113 -2.84033,-6.79394 a 1.20368,1.20368 0 0 1 -0.11279,-0.46338 0.94585,0.94585 0 0 1 0.96387,-0.95069 1.00144,1.00144 0 0 1 0.97558,0.67579 l 2.18994,5.668 2.21436,-5.73047 a 0.99829,0.99829 0 0 1 0.92578,-0.61329 0.92945,0.92945 0 0 1 0.95117,0.92579 1.11393,1.11393 0 0 1 -0.1001,0.42529 l -2.86523,6.85693 a 1.13042,1.13042 0 0 1 -1.08838,0.76319 h -0.12549 a 1.13042,1.13042 0 0 1 -1.08838,-0.76322 z"
         fill="#1f1f1f"
         id="path1282"
         style="display:inline" />
      <path
         d="m 62.68555,23.93262 v -0.02539 a 4.45157,4.45157 0 0 1 4.56689,-4.5293 4.63858,4.63858 0 0 1 2.92822,0.88867 0.962,0.962 0 0 1 0.375,0.7627 0.93959,0.93959 0 0 1 -0.95068,0.93847 1.00988,1.00988 0 0 1 -0.57568,-0.1875 2.88136,2.88136 0 0 0 -1.78907,-0.62548 2.59488,2.59488 0 0 0 -2.54,2.72753 v 0.02491 a 2.60166,2.60166 0 0 0 2.54,2.75293 2.8121,2.8121 0 0 0 1.90186,-0.68848 0.89249,0.89249 0 1 1 1.15091,1.36426 4.61549,4.61549 0 0 1 -7.60742,-3.40332 z"
         fill="#1f1f1f"
         id="path1284"
         style="display:inline" />
      <path
         d="m 71.76562,23.93262 v -0.02539 a 4.65666,4.65666 0 0 1 9.30909,-0.02491 v 0.02491 a 4.65667,4.65667 0 0 1 -9.30909,0.02539 z m 7.29493,0 v -0.02539 a 2.66111,2.66111 0 0 0 -2.65284,-2.75244 2.61934,2.61934 0 0 0 -2.62744,2.72753 v 0.02491 a 2.66113,2.66113 0 0 0 2.65235,2.75293 2.61973,2.61973 0 0 0 2.62793,-2.72754 z"
         fill="#1f1f1f"
         id="path1286"
         style="display:inline" />
    </g>
  </g>
  <g
     id="ea3a177d-3d4f-428c-a0c9-a5628575e869"
     data-name="FND TXT"
     style="display:inline"
     inkscape:label="Labels DIY">
    <g
       id="g79"
       inkscape:label="BUTTON SOFT">
      <path
         d="m 74.19824,221.52686 a 0.39116,0.39116 0 0 1 -0.16211,-0.31836 0.40312,0.40312 0 0 1 0.63672,-0.31153 2.05554,2.05554 0 0 0 1.32813,0.4878 c 0.51464,0 0.83984,-0.24415 0.83984,-0.5962 v -0.0137 c 0,-0.33838 -0.18945,-0.52148 -1.07031,-0.7251 -1.00977,-0.24365 -1.5791,-0.542 -1.5791,-1.416 v -0.0132 a 1.45075,1.45075 0 0 1 1.61914,-1.37549 2.612,2.612 0 0 1 1.50439,0.44043 0.37568,0.37568 0 0 1 0.18311,0.332 0.38765,0.38765 0 0 1 -0.39307,0.38623 0.40383,0.40383 0 0 1 -0.2168,-0.061 1.97149,1.97149 0 0 0 -1.09082,-0.35937 c -0.48779,0 -0.772,0.251 -0.772,0.5625 v 0.0137 c 0,0.36572 0.2168,0.52832 1.13086,0.74512 1.00293,0.24414 1.51758,0.603 1.51758,1.38867 v 0.0137 c 0,0.8877 -0.69727,1.416 -1.69336,1.416 a 2.95282,2.95282 0 0 1 -1.7822,-0.59619 z"
         fill="#1f1f1f"
         id="path71" />
      <path
         d="m 78.59375,219.69775 v -0.0137 a 2.48,2.48 0 0 1 4.95947,-0.0132 v 0.0132 a 2.48,2.48 0 0 1 -4.95947,0.0137 z m 4.08594,0 v -0.0137 a 1.62513,1.62513 0 0 0 -1.6128,-1.687 1.60252,1.60252 0 0 0 -1.59912,1.67383 v 0.0132 a 1.61919,1.61919 0 0 0 1.61231,1.68018 1.59671,1.59671 0 0 0 1.59961,-1.66652 z"
         fill="#1f1f1f"
         id="path73" />
      <path
         d="m 84.77051,217.73291 a 0.4135,0.4135 0 0 1 0.41992,-0.41992 h 2.76416 a 0.3794,0.3794 0 0 1 0,0.75879 h -2.35107 v 1.29394 h 2.04589 a 0.3794,0.3794 0 1 1 0,0.75879 h -2.04589 v 1.55127 a 0.41652,0.41652 0 0 1 -0.833,0 z"
         fill="#1f1f1f"
         id="path75" />
      <path
         d="m 90.68848,218.08545 h -1.15186 a 0.38623,0.38623 0 0 1 0,-0.77246 H 92.687 a 0.38629,0.38629 0 0 1 0,0.77246 h -1.15868 v 3.59033 a 0.42,0.42 0 0 1 -0.83984,0 z"
         fill="#1f1f1f"
         id="path77" />
    </g>
    <g
       id="g87"
       inkscape:label="BUTTON LFM">
      <path
         d="m 44.7085,218.73584 a 0.41651,0.41651 0 0 1 0.833,0 v 3.604 h 2.148 a 0.3794,0.3794 0 1 1 0,0.75879 h -2.561 a 0.4135,0.4135 0 0 1 -0.41992,-0.41992 z"
         fill="#1f1f1f"
         id="path81" />
      <path
         d="m 49.06152,218.77637 a 0.41362,0.41362 0 0 1 0.41993,-0.42041 h 2.76416 a 0.3794,0.3794 0 0 1 0,0.75879 h -2.35108 v 1.29443 h 2.04639 a 0.3794,0.3794 0 0 1 0,0.75879 h -2.04639 v 1.55127 a 0.41652,0.41652 0 0 1 -0.833,0 z"
         fill="#1f1f1f"
         id="path83" />
      <path
         d="m 53.644,218.749 a 0.41772,0.41772 0 0 1 0.41992,-0.41992 h 0.0879 a 0.43807,0.43807 0 0 1 0.38623,0.22363 l 1.43652,2.249 1.44287,-2.25586 a 0.41976,0.41976 0 0 1 0.3794,-0.2168 h 0.08789 a 0.41814,0.41814 0 0 1 0.42041,0.41992 v 3.97022 a 0.41212,0.41212 0 0 1 -0.42041,0.41308 0.41932,0.41932 0 0 1 -0.41309,-0.41308 v -2.8457 l -1.1582,1.74121 a 0.3895,0.3895 0 0 1 -0.69825,0 l -1.15136,-1.72754 v 2.83886 a 0.40484,0.40484 0 0 1 -0.41358,0.40625 0.399,0.399 0 0 1 -0.40625,-0.40625 z"
         fill="#1f1f1f"
         id="path85" />
    </g>
    <g
       id="g97"
       inkscape:label="KNOB FREQ">
      <path
         style="display:inline;fill:#000000;fill-opacity:0;stroke:#000000;stroke-width:1;stroke-linecap:round;stroke-linejoin:bevel;stroke-dasharray:none"
         d="m 112.1294,106.88789 c -0.75225,-0.37314 -1.6961,-1.03026 -1.16451,-2.01628 0.53168,-0.98619 1.99941,-0.88695 2.67043,-0.11835 0.59414,0.68054 1.03349,1.62378 0.94767,2.52135 -0.0852,0.89112 -0.37468,2.03032 -1.26044,2.39227 -0.73201,0.29912 -1.47959,-0.14674 -2.10494,-0.48005 -1.75292,-0.93429 -2.8479,-2.91852 -2.82837,-4.90778 0.0135,-1.37187 0.45702,-2.83692 1.46245,-3.74019 0.79334,-0.712728 1.87459,-0.982781 2.91269,-1.092546 1.06869,-0.113 1.29252,-1.289206 1.54919,-2.123953 0.34437,-1.119957 0.15747,-2.284295 0.19345,-3.485895 0.0253,-0.843643 -1.02852,-1.880277 -1.71574,-1.206798 -0.83284,0.816188 -0.87927,2.055273 -0.93636,3.142407 -0.17431,3.319553 0.0807,6.639685 0.23322,9.958355 0.12078,2.62786 0.012,5.25515 -0.0198,7.88632 -0.0187,1.55408 -0.10474,3.11656 -0.4444,4.65658 -0.24973,1.13227 -1.6407,0.52364 -2.13797,-0.12752 -0.83321,-1.09106 -1.38452,-2.53359 -1.02857,-3.94781 0.1884,-0.74854 1.0787,-1.65123 1.74847,-0.73514 0.3078,0.421 0.41395,0.97889 0.29587,1.48557"
         id="path3628"
         inkscape:path-effect="#path-effect3630"
         inkscape:original-d="m 112.1294,106.88789 c -0.0227,-0.14444 -0.9759,-0.51768 -1.02813,-0.64181 -0.50726,-0.66707 -0.34833,-1.89816 0.96707,-2.08304 0.71966,-0.11124 1.70883,0.43498 2.04591,1.29213 0.29497,0.76316 0.54301,1.19806 0.44892,2.15572 -0.37625,1.62707 -1.18482,2.64236 -2.54256,1.90786 -1.29844,-0.40979 -2.2569,-1.27799 -2.84716,-2.33621 -0.9157,-1.2852 -1.13085,-3.65654 -0.10573,-5.44938 0.022,-0.16751 0.58371,-0.92626 0.65203,-1.0751 0.71386,-0.663956 1.24759,-0.865245 2.40965,-1.155093 0.65407,-0.0076 1.03126,-0.119566 1.43419,-0.413142 0.39016,-0.624452 0.55878,-1.220044 0.85614,-2.077206 0.10458,-0.443832 0.31444,-1.538247 0.29305,-1.983026 -0.0384,-0.675229 -0.35262,-1.792252 -0.47304,-2.142577 -0.12436,-0.06954 -0.63093,-0.362607 -0.76307,-0.407472 -0.667,-0.198073 -0.93762,0.465058 -1.26035,0.981214 -0.39066,1.428355 -0.40172,2.905081 -0.4346,4.389639 -0.0182,0.821101 0.0136,3.214653 0.0435,3.873213 0.0394,1.78488 0.2832,3.35574 0.30422,5.16428 0,1.10225 -0.0665,3.25547 -0.0869,4.35746 -0.0294,2.21348 0.36019,7.23734 -1.02505,7.73859 -1.63622,-0.40951 -1.2129,-0.50121 -1.75416,-1.15016 -0.62724,-0.83973 -1.00708,-2.00264 -0.97538,-2.8548 0.0223,-0.56945 0.36175,-1.30357 0.5178,-1.47411 0.24761,-0.20309 0.53165,-0.34368 0.58915,-0.51452 0.69043,-0.0104 1.33617,0.9686 1.10686,1.95808"
         sodipodi:nodetypes="cccccccccccccccccccccccccc"
         inkscape:label="f" />
      <g
         id="g3651"
         inkscape:label="c"
         style="display:inline">
        <path
           style="fill:#000000;fill-opacity:0;stroke:#000000;stroke-width:0.999998;stroke-linecap:round;stroke-linejoin:bevel;stroke-dasharray:none"
           d="m 26.174906,100.25741 c 0.02124,-0.797507 -0.01472,-1.657251 -0.406972,-2.34772 -0.33617,-0.591743 -0.870857,-1.164055 -1.533682,-1.31069 -1.024018,-0.226541 -2.266934,-0.317866 -3.063392,0.354407 -0.560812,0.473369 -1.037263,1.063717 -1.351555,1.722303 -0.687588,1.44081 -0.800733,3.08513 -0.714564,4.65628 0.05686,1.03675 0.356172,2.03107 0.669187,3.02652 0.202035,0.64251 0.49604,1.25429 0.98531,1.74836 0.480038,0.48475 1.126906,0.80616 1.828795,0.79595 0.711801,-0.0104 1.535114,0.11907 2.11709,-0.288 0.674004,-0.47144 1.02813,-1.26984 1.271694,-2.02805 0.08456,-0.26324 0.152432,-0.53207 0.198377,-0.80479"
           id="path3636"
           inkscape:path-effect="#path-effect3638"
           inkscape:original-d="m 26.174906,100.25741 c 0.06327,-0.701963 -0.295481,-2.156203 -0.435661,-2.408663 -0.279868,-0.50402 -1.088394,-1.17065 -1.605094,-1.27588 -0.498053,-0.07679 -1.541271,-0.23368 -2.963291,0.38054 -0.367503,0.29266 -0.681707,0.68805 -0.96045,1.10478 -1.438272,1.7992 -1.319671,6.003613 -0.654513,7.744963 0.472821,1.09584 0.402856,1.55496 1.203341,2.30372 0.610734,0.57128 1.06303,0.78074 1.690983,0.79439 0.734867,0.016 1.472189,-0.0921 2.195314,-0.25495 0.633993,-0.30375 1.32515,-1.64689 1.529659,-2.86433"
           sodipodi:nodetypes="csccccsscc" />
        <path
           style="fill:#000000;fill-opacity:0;stroke:#000000;stroke-width:0.999998;stroke-linecap:round;stroke-linejoin:bevel;stroke-dasharray:none"
           d="m 28.815284,100.35586 c -0.0025,0.011 -0.0049,0.0221 -0.0074,0.0331"
           id="path3640"
           sodipodi:nodetypes="cc"
           inkscape:original-d="m 28.815284,100.35586 -0.0074,0.0331"
           inkscape:path-effect="#path-effect3642" />
        <path
           style="fill:#000000;fill-opacity:0;stroke:#000000;stroke-width:0.999998;stroke-linecap:round;stroke-linejoin:bevel;stroke-dasharray:none"
           d="m 29.07006,105.73625 c -0.04574,-0.0283 -0.09147,-0.0567 -0.137208,-0.085"
           id="path3644"
           inkscape:path-effect="#path-effect3646"
           inkscape:original-d="m 29.07006,105.73625 -0.137208,-0.085" />
      </g>
    </g>
    <g
       id="g119"
       inkscape:label="KNOB PULSE WIDTH"
       style="display:inline">
      <path
         style="fill:#000000;fill-opacity:0;stroke:#000000;stroke-width:0.999999;stroke-linecap:round;stroke-linejoin:bevel;stroke-dasharray:none"
         d="m 50.971464,132.80423 c -3.518551,0.3285 -7.036681,0.70736 -10.475402,1.62133 -4.163346,1.10657 -7.861325,3.69194 -10.619311,6.94528 -1.239109,1.46166 -2.154273,3.17779 -2.926666,4.92133 -0.99613,2.24858 -1.393599,4.69515 -1.581287,7.13875 -0.09246,1.20375 -0.184915,2.40749 -0.277373,3.61124"
         id="path3684"
         inkscape:path-effect="#path-effect3686"
         inkscape:original-d="m 50.971464,132.80423 c -4.69814,0.47263 -6.611851,0.42768 -11.328246,1.87586 -4.100402,1.21172 -8.562843,4.8507 -10.657682,7.8343 -1.303778,2.25895 -2.813968,4.47993 -3.465816,8.95161 l -0.428295,5.57616"
         sodipodi:nodetypes="ccccc" />
      <path
         style="display:inline;fill:#000000;fill-opacity:0;stroke:#000000;stroke-width:0.999999;stroke-linecap:round;stroke-linejoin:bevel;stroke-dasharray:none"
         d="m 24.175752,179.62194 c -0.281051,-0.71771 -0.168014,-1.52486 -0.238759,-2.28265 -0.173103,-1.8542 0.02878,-3.727 -0.142349,-5.57698 -0.02974,-0.32148 -0.368243,-0.25304 -0.04899,-0.33141 0.452354,-0.11105 0.941248,-0.0564 1.411196,-0.0562 0.430468,1.8e-4 1.383562,-0.41931 1.292262,0 -0.159048,0.73045 -0.07002,1.60932 -0.018,2.39179 0.164898,2.48008 0.893666,4.86655 1.304764,7.30739 0.0973,0.5777 -0.174429,2.21082 0.187853,1.74584 0.161693,-0.20753 0.918832,-0.48072 1.353943,-0.58735 1.446352,-0.35444 2.942784,-0.21084 4.416251,-0.20288 1.539329,0.008 3.217302,-0.4349 4.613562,0.22919 0.5148,0.24485 1.071098,0.57901 1.65894,0.67323 0.288482,0.0462 0.567166,0.17775 0.860191,0.16831"
         id="path3658"
         inkscape:path-effect="#path-effect3660"
         inkscape:original-d="m 24.175752,179.62194 c -0.04096,-0.11221 -0.110888,-0.21885 -0.122885,-0.33662 -0.07029,-0.68997 -0.08402,-1.38377 -0.122887,-2.07581 -0.137017,-1.62576 -0.122885,-2.97029 -0.122885,-4.60045 v -0.33662 c 0,-0.13091 0.01297,-0.26235 0,-0.39272 -0.07137,-0.71692 -0.06144,0.074 -0.06144,-0.33662 0,-0.0374 -0.02895,-0.0858 0,-0.1122 0.08087,-0.0738 0.273005,-0.0562 0.368653,-0.0562 h 0.737307 1.105963 0.368655 0.06144 c 0.02048,0 0.04696,-0.0132 0.06144,0 0.05085,0.0464 -0.05744,0.094 -0.06144,0.1122 -0.01607,0.0733 0,0.14961 0,0.22441 -0.145362,3.09082 0.820468,6.62131 0.921634,7.12509 0.239153,1.21115 0.444213,2.26146 0.614424,3.36618 0.01483,0.149 0,0.29923 0,0.44883 v 0.11221 c 0,0.0187 0.01448,0.0429 0,0.0561 -0.01448,0.0132 -0.07592,0.0132 -0.06144,0 0.03238,-0.0295 0.08405,-0.034 0.122884,-0.0561 0.12524,-0.0715 0.233213,-0.17064 0.368654,-0.22442 1.807951,-0.71775 2.554087,-0.43152 5.099713,-0.50493 0.73519,-0.0212 2.830148,0.003 3.563656,0.0561 0.43308,0.0317 0.85981,0.11471 1.290289,0.16831 0.02029,0.003 0.04313,-0.009 0.06144,0 0.05181,0.0236 0.07107,0.0885 0.122884,0.1122 0.09865,0.0451 0.207071,0.07 0.307212,0.11221 0.679509,0.28637 0.353985,0.21428 1.167404,0.44882 0.161049,0.0464 0.328601,0.0716 0.491538,0.11221 0.06249,0.0155 0.12082,0.0445 0.184328,0.0561 0.04017,0.008 0.08192,0 0.122885,0 h 0.06144"
         sodipodi:nodetypes="csccscscscccssccccssssccscccscsccsc" />
      <path
         style="display:inline;fill:#000000;fill-opacity:0;stroke:#000000;stroke-width:0.999998;stroke-linecap:round;stroke-linejoin:bevel;stroke-dasharray:none"
         d="m 94.829054,184.52112 c -0.05436,-0.87114 -0.230391,-1.73776 -0.307303,-2.61283 -0.183165,-2.08397 -0.277318,-4.18232 -0.172824,-6.27054 0.03727,-0.74487 0.05388,-1.49042 0.09534,-2.23557 0.02354,-0.4231 0.0408,-0.59188 0.618226,-0.61897 1.702434,-0.0799 3.405573,-0.0705 5.109466,-0.0869 1.79168,-0.0172 7.17238,0.0297 5.37648,-0.0176 -0.26402,-0.007 -0.79231,-0.004 -0.20438,0.0262 0.57161,0.0297 1.42434,0.48009 1.7248,-0.005 0.0527,-0.0851 0.92856,-0.15827 1.31197,-0.15778 0.41138,5.3e-4 1.24288,-0.40967 1.23501,0 -0.0285,1.48204 0.33569,2.92753 0.62143,4.37153 0.25957,1.31174 0.54421,2.62999 0.56057,3.96765 0.0112,0.91557 -0.32169,1.88917 -0.0276,2.76183 0.13419,0.39826 0.93377,0.34815 1.35361,0.3963 0.62709,0.0719 1.25912,0.0849 1.88974,0.085"
         id="path3662"
         inkscape:path-effect="#path-effect3664"
         inkscape:original-d="m 94.829054,184.52112 c 0,-0.11031 0.01013,-0.22129 0,-0.33092 -0.0083,-0.0904 -0.04145,-0.17525 -0.05497,-0.26474 -0.339063,-2.05447 -0.440226,-4.56251 -0.439756,-6.15512 0,-0.13236 0.0064,-0.26496 0,-0.3971 -0.0738,-1.28899 0.111588,-2.7549 0.10994,-3.70633 0,-0.0882 -0.01206,-0.17769 0,-0.26473 0.0067,-0.0487 0.04503,-0.0845 0.05497,-0.13237 0.0089,-0.0428 0,-0.0883 0,-0.13237 v -0.19855 c 0,-0.0419 -0.01295,-0.1291 0.05497,-0.13237 1.355324,-0.0653 2.711518,-0.10492 4.067732,-0.13237 1.89088,0.0842 3.55281,-0.0766 5.387,-0.0662 0.12826,0 0.25665,-0.007 0.38478,0 2.94588,0.16122 -0.97281,-0.0233 1.48417,0.13237 0.12809,0.008 0.25653,0 0.38479,0 h 0.54969 c 0.0366,0 0.074,0.009 0.10994,0 0.58684,-0.14132 -0.56108,0.001 0.54969,-0.13237 0.0641,-0.008 0.34203,0.0103 0.38479,0 0.0254,-0.006 0.0293,-0.0623 0.055,-0.0662 0.12727,-0.0192 0.25652,0 0.38478,0 h 0.49473 0.60466 0.10994 c 0.0366,0 0.0772,-0.0197 0.10994,0 0.0164,0.01 0,0.0441 0,0.0662 0,0.11031 -0.006,0.22086 0,0.33092 0.0335,0.60542 0.11387,1.19134 0.21987,1.78697 0.0438,0.24595 0.11589,0.48351 0.16491,0.72802 0.43134,2.8688 0.64162,3.09715 0.76957,5.22854 0.009,0.13373 0.0464,0.26331 0.055,0.39711 -0.0488,0.63032 -0.055,1.03599 -0.055,2.18407 v 0.46329 c 0,0.0221 -0.013,0.0506 0,0.0662 0.0129,0.0156 0.037,-0.004 0.055,0 0.0741,0.0179 0.14613,0.0465 0.21988,0.0662 1.00209,0.21846 1.82734,0.2648 2.96847,0.2648"
         sodipodi:nodetypes="cccccccssscccccssccccsccscscsccccscccc" />
      <path
         style="fill:#000000;fill-opacity:0;stroke:#000000;stroke-width:0.999999;stroke-linecap:round;stroke-linejoin:bevel;stroke-dasharray:none"
         d="m 20.754562,156.74037 c 0.441174,0.39353 1.053756,0.63428 1.350284,1.1561 0.415259,0.73076 0.81373,1.47152 1.208724,2.21383 0.180893,0.33995 0.241168,0.6956 0.235114,1.10567 -0.0068,0.46226 0.43474,0.77875 0.492568,1.21795 0.05934,0.45066 0.537095,-0.21855 0.661424,-0.42513 0.359276,-0.59695 0.912077,-1.04386 1.401796,-1.52945 0.930355,-0.92251 2.067287,-1.6298 2.839381,-2.71785 0.564187,-0.79506 1.104689,-1.60661 1.648769,-2.41546"
         id="path3688"
         inkscape:path-effect="#path-effect3690"
         inkscape:original-d="m 20.754562,156.74037 c 1.56736,1.24399 1.04325,0.59423 2.10815,2.55629 0.24832,0.45753 0.53709,0.90136 0.70272,1.39434 0.0741,0.22046 -0.0644,0.47372 0,0.69716 0.0959,0.3331 0.33879,0.60792 0.46848,0.92956 0.0521,0.12911 -0.13013,0.41314 0.23424,0.23239 0.0988,-0.049 0.16798,-0.14475 0.23424,-0.23239 0.16891,-0.22343 0.28145,-0.48842 0.46848,-0.69717 0.44016,-0.49126 0.92109,-0.94585 1.40544,-1.39433 0.68734,-0.63646 1.48351,-1.16195 2.10815,-1.85912 0.34307,-0.38291 1.54167,-2.17806 2.10816,-3.02107" />
      <path
         style="fill:#000000;fill-opacity:0;stroke:#000000;stroke-width:0.999999;stroke-linecap:round;stroke-linejoin:bevel;stroke-dasharray:none"
         d="m 83.568283,132.64023 c 3.764386,0.23815 7.7066,0.70066 10.972286,2.62036 3.069005,1.80408 5.894481,4.2342 7.685981,7.30461 0.92967,1.59334 1.51676,3.3709 2.07749,5.12047 1.15203,3.5945 1.82395,7.3774 1.75881,11.1393 -0.0194,1.12158 -0.10179,2.24031 0.22667,3.32875"
         id="path3692"
         inkscape:path-effect="#path-effect3694"
         inkscape:original-d="m 83.568283,132.64023 c 3.575726,0.20626 7.328533,0.96916 10.671772,2.45896 3.190213,1.65656 6.897475,5.42592 8.371565,8.11438 2.52453,5.88947 3.02182,9.24394 3.44366,14.75714 0.0363,0.57544 -0.0423,2.51755 0,3.02106 0.0331,0.39363 0.18486,0.77002 0.23424,1.16195"
         sodipodi:nodetypes="ccccsc" />
      <path
         style="fill:#000000;fill-opacity:0;stroke:#000000;stroke-width:0.999999;stroke-linecap:round;stroke-linejoin:bevel;stroke-dasharray:none"
         d="m 99.730814,155.18203 c 0.633256,0.63343 1.300286,1.24633 1.754656,2.03471 0.91285,1.5839 1.91506,3.11599 2.71878,4.76302 0.43481,0.89104 0.81862,1.79575 1.22028,2.71283 0.17497,0.3995 0.32421,1.5228 0.60632,1.19304 0.42237,-0.49372 0.54051,-1.16834 0.80271,-1.75214 0.34458,-0.76723 0.63808,-1.55299 0.87586,-2.36185 0.50215,-1.70818 1.06406,-3.40783 1.35581,-5.16469 0.0399,-0.24015 0.0323,-0.48522 0.0352,-0.72775"
         id="path3696"
         inkscape:path-effect="#path-effect3698"
         inkscape:original-d="m 99.730814,155.18203 c 1.747516,1.73372 1.016846,0.87717 3.045116,4.18301 0.41798,0.68126 0.82436,1.37203 1.1712,2.09151 0.51312,1.06442 0.68525,1.31017 1.19165,2.37775 0.11987,0.25271 0.32005,1.07254 0.46489,1.31204 0.0898,0.14853 0.32816,0.8481 0.45161,0.72562 0.22764,-0.22585 0.5237,-1.0613 0.6255,-1.3643 0.0552,-0.16433 0.54444,-1.27824 0.61119,-1.43843 0.18674,-0.44816 0.67856,-2.15669 0.87147,-3.00701 0.23756,-1.04715 0.52405,-2.13643 0.70272,-2.78868 0.18608,-0.67931 0.23424,-0.47922 0.23424,-1.39434"
         sodipodi:nodetypes="csssssssssc" />
      <path
         style="fill:#000000;fill-opacity:0;stroke:#000000;stroke-width:0.999999;stroke-linecap:round;stroke-linejoin:bevel;stroke-dasharray:none"
         d="m 56.496896,136.77225 c -0.203107,-1.42977 -0.119244,-2.87534 -0.119133,-4.31443 9.9e-5,-1.27966 -1.086584,-3.17078 0,-3.84079 0.337062,-0.20784 0.802776,-0.12309 1.216783,-0.11819 1.540868,0.0182 3.124692,-0.23415 4.620191,0.15044 0.658611,0.16937 1.350757,0.0879 2.026968,0.0859 0.92373,-0.003 1.925385,-0.38548 2.771254,-0.0186 0.390827,0.1695 0.21972,0.73471 0.205846,1.09308 -0.04226,1.0916 0.327746,2.15646 0.421731,3.23861 0.04493,0.51733 0.04405,1.00424 0.17393,1.51934 0.09611,0.38116 0.118738,0.77107 0.119133,1.18191 5.17e-4,0.53733 -0.53423,1.61334 0,1.61367 0.482528,3e-4 1.110565,-0.34181 1.458972,-0.004 0.165006,0.16001 0.938551,0.13605 1.350492,0.12214 0.423006,-0.0143 0.824508,0.19628 1.240458,0.124 0.532641,-0.0926 1.021503,-0.01 1.543537,0.11238 0.360512,0.0845 0.724154,0.095 1.103419,0.11819 0.378213,0.0231 0.727028,-0.11747 1.090682,-0.11819 0.461843,-9.1e-4 0.954429,0.16353 1.385631,0 0.43334,-0.16434 0.901858,-0.23638 1.379875,-0.23638 0.05628,0 0.112565,0 0.168847,0"
         id="path3700"
         inkscape:path-effect="#path-effect3702"
         inkscape:original-d="m 56.496896,136.77225 c -0.0397,-0.39397 -0.09424,-0.78675 -0.119133,-1.18191 -0.01486,-0.23593 0,-0.47277 0,-0.70915 0,-0.23639 0,-0.47277 0,-0.70915 0,-1.37891 0,-2.75781 0,-4.13671 0,-0.39397 0,-0.78794 0,-1.18191 0,-0.0394 0,-0.0788 0,-0.11819 0,-0.0394 -0.02808,-0.0903 0,-0.1182 0.02808,-0.0279 0.08361,0.0176 0.119133,0 0.05023,-0.0249 0.06354,-0.11031 0.119129,-0.11819 0.235871,-0.0334 0.476533,0 0.714794,0 0.317686,0 0.635376,0 0.953061,0 0.397109,0 0.794214,0 1.191323,0 0.357399,0 0.715163,-0.0161 1.072189,0 0.516243,0.0394 1.032485,0.0788 1.548723,0.11819 0.158842,0.0394 0.314061,0.098 0.476528,0.1182 0.157618,0.0196 0.31769,0 0.476532,0 0.119134,0 0.238262,0 0.357395,0 0.754504,0 1.509013,0 2.263517,0 0.238262,0 0.476528,0 0.714794,0 0.238262,0 0.485698,-0.0649 0.714795,0 0.08538,0.0242 0.101718,0.14999 0.119129,0.23638 0.02338,0.11589 0,0.23638 0,0.35457 0,0.19699 0,0.39397 0,0.59096 0,0.23638 -0.01699,0.47337 0,0.70915 0.0228,0.31682 0.07386,0.63109 0.119133,0.94553 0.0354,0.24588 0.169852,1.02862 0.238266,1.30011 0.03047,0.12086 0.101372,0.23124 0.119133,0.35457 0.02245,0.15601 -0.02613,0.31733 0,0.47277 0.01459,0.0869 0.09759,0.15092 0.119129,0.23638 0.01925,0.0764 0,0.15759 0,0.23639 0,0.15759 0,0.31518 0,0.47276 0,0.0394 -0.01255,0.0808 0,0.1182 0.02808,0.0836 0.0976,0.15091 0.119133,0.23638 0.01925,0.0764 0,0.15759 0,0.23638 0,0.0394 0,0.0788 0,0.11819 0,0.31518 0,0.63036 0,0.94554 0,0.31517 0,0.63035 0,0.94553 0,0.0394 -0.02808,0.0903 0,0.11819 0.02808,0.0279 0.07942,0 0.119133,0 0.238267,0 0.476528,0 0.714795,0 1.418158,0 -0.231324,-0.0386 1.191322,0.11819 0.157872,0.0174 0.317686,0 0.476533,0 0.158843,0 0.317686,0 0.476528,0 0.07942,0 0.158843,0 0.238262,0 0.119133,0 0.23989,-0.0194 0.3574,0 0.123866,0.0205 0.23426,0.0938 0.357395,0.11819 0.07788,0.0155 0.158842,0 0.238266,0 0.158843,0 0.319282,-0.0223 0.476528,0 0.124314,0.0176 0.234261,0.0938 0.3574,0.11819 0.07788,0.0155 0.158842,0 0.238261,0 0.119134,0 0.238267,0 0.3574,0 0.0397,0 0.08061,-0.01 0.119133,0 0.121826,0.0302 0.235569,0.088 0.357395,0.11819 0.0385,0.01 0.07942,0 0.119133,0 0.07942,0 0.158843,0 0.238267,0 0.198552,0 0.397104,0 0.595661,0 0.07942,0 0.158843,0 0.238262,0 0.0397,0 0.08146,0.0125 0.119133,0 0.08424,-0.0279 0.154025,-0.0903 0.238266,-0.11819 0.03766,-0.0125 0.07942,0 0.119133,0 0.07942,0 0.158843,0 0.238262,0 0.277976,0 0.555952,0 0.833928,0 0.0397,0 0.07942,0 0.119133,0 0.07942,0 0.161216,0.0191 0.238262,0 0.08615,-0.0214 0.152122,-0.0968 0.238266,-0.11819 0.07705,-0.0191 0.160387,0.0155 0.238266,0 0.123139,-0.0244 0.23557,-0.088 0.357396,-0.11819 0.0385,-0.01 0.07942,0 0.119133,0 0.0397,0 0.07942,0 0.119133,0 0.158843,0 0.317685,0 0.476528,0" />
    </g>
    <g
       id="g133"
       inkscape:label="CV IN FM">
      <path
         d="m 14.88525,266.64209 a 0.41381,0.41381 0 0 1 0.41993,-0.41992 h 2.76416 a 0.3794,0.3794 0 0 1 0,0.75879 h -2.35059 v 1.29394 h 2.0459 a 0.3794,0.3794 0 0 1 0,0.75879 h -2.0459 v 1.55131 a 0.41676,0.41676 0 0 1 -0.8335,0 z"
         fill="#1f1f1f"
         id="path129" />
      <path
         d="m 19.46777,266.61523 a 0.41742,0.41742 0 0 1 0.41993,-0.41992 h 0.08789 a 0.43806,0.43806 0 0 1 0.38623,0.22364 l 1.43652,2.249 1.44287,-2.25586 a 0.4183,0.4183 0 0 1 0.3794,-0.2168 H 23.709 a 0.41773,0.41773 0 0 1 0.41993,0.41992 V 270.585 A 0.41242,0.41242 0 0 1 23.709,270.99858 0.41985,0.41985 0 0 1 23.29543,270.585 v -2.84521 l -1.15871,1.74121 a 0.38872,0.38872 0 0 1 -0.69727,0 l -1.15234,-1.72754 v 2.83838 a 0.40483,0.40483 0 0 1 -0.41309,0.40674 0.39909,0.39909 0 0 1 -0.40625,-0.40674 z"
         fill="#1f1f1f"
         id="path131" />
    </g>
    <g
       id="g145"
       inkscape:label="CV IN V/OCT">
      <path
         d="M 41.6875,270.69336 40.02734,266.791 a 0.45988,0.45988 0 0 1 -0.04736,-0.19629 0.41063,0.41063 0 0 1 0.41992,-0.40625 0.43735,0.43735 0 0 1 0.42725,0.29785 l 1.36816,3.42138 1.38869,-3.44869 a 0.42966,0.42966 0 0 1 0.39991,-0.2705 0.40375,0.40375 0 0 1 0.41357,0.39941 0.477,0.477 0 0 1 -0.041,0.17627 l -1.66651,3.9292 a 0.49651,0.49651 0 0 1 -0.481,0.33887 h -0.04785 a 0.49358,0.49358 0 0 1 -0.47362,-0.33889 z"
         fill="#1f1f1f"
         id="path135" />
      <path
         d="m 44.37988,271.3916 2.77149,-5.67773 a 0.32256,0.32256 0 0 1 0.61621,0.12207 0.53851,0.53851 0 0 1 -0.03369,0.1626 l -2.77784,5.67724 a 0.30819,0.30819 0 0 1 -0.291,0.18994 0.32223,0.32223 0 0 1 -0.3252,-0.312 0.38641,0.38641 0 0 1 0.04003,-0.16212 z"
         fill="#1f1f1f"
         id="path137" />
      <path
         d="m 48.14014,268.60693 v -0.0137 a 2.48,2.48 0 0 1 4.95947,-0.0132 v 0.0132 a 2.48,2.48 0 0 1 -4.95947,0.0137 z m 4.08545,0 v -0.0137 a 1.625,1.625 0 0 0 -1.61231,-1.687 1.60252,1.60252 0 0 0 -1.59912,1.67383 v 0.0132 a 1.619,1.619 0 0 0 1.61279,1.68018 1.59651,1.59651 0 0 0 1.59864,-1.66652 z"
         fill="#1f1f1f"
         id="path139" />
      <path
         d="m 54.0791,268.60693 v -0.0137 a 2.39977,2.39977 0 0 1 2.44531,-2.45264 2.48646,2.48646 0 0 1 1.626,0.53516 0.41709,0.41709 0 0 1 0.16309,0.332 0.4166,0.4166 0 0 1 -0.66407,0.3252 1.72349,1.72349 0 0 0 -1.13183,-0.42676 1.59617,1.59617 0 0 0 -1.56446,1.67383 v 0.0132 a 1.59778,1.59778 0 0 0 1.56446,1.68018 1.69714,1.69714 0 0 0 1.18554,-0.4541 0.38366,0.38366 0 0 1 0.251,-0.0947 0.39659,0.39659 0 0 1 0.39307,0.38623 0.40167,0.40167 0 0 1 -0.13526,0.29834 2.42559,2.42559 0 0 1 -1.72119,0.63672 2.38475,2.38475 0 0 1 -2.41166,-2.43894 z"
         fill="#1f1f1f"
         id="path141" />
      <path
         d="m 60.69824,266.99463 h -1.15185 a 0.38623,0.38623 0 0 1 0,-0.77246 h 3.15039 a 0.38629,0.38629 0 0 1 0,0.77246 h -1.15869 v 3.59037 a 0.42,0.42 0 0 1 -0.83985,0 z"
         fill="#1f1f1f"
         id="path143" />
    </g>
    <g
       id="g155"
       inkscape:label="CV IN SYNC">
      <path
         d="m 74.0166,270.436 a 0.39116,0.39116 0 0 1 -0.16211,-0.31836 0.40312,0.40312 0 0 1 0.63672,-0.31153 2.05554,2.05554 0 0 0 1.32813,0.4878 c 0.51464,0 0.83984,-0.24415 0.83984,-0.5962 v -0.0137 c 0,-0.33838 -0.18945,-0.52148 -1.07031,-0.7251 -1.00977,-0.24365 -1.5791,-0.542 -1.5791,-1.416 v -0.0132 a 1.45075,1.45075 0 0 1 1.61914,-1.37549 2.612,2.612 0 0 1 1.50439,0.44043 0.37568,0.37568 0 0 1 0.18311,0.332 0.38766,0.38766 0 0 1 -0.39307,0.38623 0.40383,0.40383 0 0 1 -0.2168,-0.061 1.97149,1.97149 0 0 0 -1.09082,-0.35937 c -0.48779,0 -0.772,0.251 -0.772,0.5625 v 0.0137 c 0,0.36572 0.2168,0.52832 1.13086,0.74512 1.00293,0.24414 1.51758,0.603 1.51758,1.38867 v 0.0137 c 0,0.8877 -0.69727,1.416 -1.69336,1.416 a 2.95282,2.95282 0 0 1 -1.7822,-0.5962 z"
         fill="#1f1f1f"
         id="path147" />
      <path
         d="m 79.98828,269.12207 -1.63281,-2.24268 a 0.52009,0.52009 0 0 1 -0.09473,-0.2915 0.40478,0.40478 0 0 1 0.41992,-0.39941 0.4795,0.4795 0 0 1 0.40625,0.25048 l 1.32129,1.90381 1.3418,-1.91064 a 0.47819,0.47819 0 0 1 0.39941,-0.25049 0.39458,0.39458 0 0 1 0.40625,0.40625 0.5059,0.5059 0 0 1 -0.11474,0.29834 l -1.61963,2.21533 v 1.4834 a 0.41652,0.41652 0 0 1 -0.833,0 z"
         fill="#1f1f1f"
         id="path149" />
      <path
         d="m 83.53809,266.61523 a 0.41814,0.41814 0 0 1 0.42041,-0.41992 h 0.08838 a 0.52524,0.52524 0 0 1 0.43359,0.24365 l 2.37109,3.06885 v -2.91308 a 0.40968,0.40968 0 0 1 0.81934,0 v 3.98339 a 0.40484,0.40484 0 0 1 -0.40625,0.41358 h -0.03418 a 0.52486,0.52486 0 0 1 -0.43359,-0.25049 L 84.3584,267.584 v 3.00782 a 0.41017,0.41017 0 0 1 -0.82031,0 z"
         fill="#1f1f1f"
         id="path151" />
      <path
         d="m 88.88574,268.60693 v -0.0137 a 2.39977,2.39977 0 0 1 2.44531,-2.45264 2.48644,2.48644 0 0 1 1.626,0.53516 0.41709,0.41709 0 0 1 0.16309,0.332 0.4166,0.4166 0 0 1 -0.66407,0.3252 1.72349,1.72349 0 0 0 -1.13183,-0.42676 1.59616,1.59616 0 0 0 -1.56445,1.67383 v 0.0132 a 1.59777,1.59777 0 0 0 1.56445,1.68018 1.69718,1.69718 0 0 0 1.18555,-0.4541 0.38361,0.38361 0 0 1 0.251,-0.0947 0.39659,0.39659 0 0 1 0.39307,0.38623 0.40167,0.40167 0 0 1 -0.13526,0.29834 2.42559,2.42559 0 0 1 -1.72119,0.63672 2.38475,2.38475 0 0 1 -2.41167,-2.43894 z"
         fill="#1f1f1f"
         id="path153" />
    </g>
    <g
       id="g163"
       inkscape:label="CV IN PWM">
      <path
         d="m 107.02441,266.64209 a 0.41351,0.41351 0 0 1 0.41993,-0.41992 h 1.4497 a 1.59207,1.59207 0 0 1 1.80225,1.58545 v 0.0137 c 0,1.06348 -0.85352,1.61914 -1.897,1.61914 h -0.9419 v 1.14457 a 0.41652,0.41652 0 0 1 -0.833,0 z m 1.80176,2.04639 c 0.63037,0 1.02344,-0.35254 1.02344,-0.84717 v -0.0132 c 0,-0.55566 -0.3999,-0.84716 -1.02344,-0.84716 h -0.96875 v 1.70752 z"
         fill="#1f1f1f"
         id="path157" />
      <path
         d="m 111.44385,266.75732 a 0.44168,0.44168 0 0 1 -0.0337,-0.16259 0.41622,0.41622 0 0 1 0.42675,-0.40625 0.42444,0.42444 0 0 1 0.41309,0.30468 l 1.09082,3.25879 1.07031,-3.24511 a 0.43991,0.43991 0 0 1 0.41992,-0.332 h 0.0615 a 0.434,0.434 0 0 1 0.41992,0.332 l 1.07031,3.24511 1.09082,-3.26562 a 0.42456,0.42456 0 0 1 0.40625,-0.29785 0.40775,0.40775 0 0 1 0.41358,0.39941 0.48423,0.48423 0 0 1 -0.0405,0.16943 l -1.40234,3.9292 a 0.46435,0.46435 0 0 1 -0.4336,0.34571 h -0.0815 a 0.44885,0.44885 0 0 1 -0.42676,-0.34571 l -1.05713,-3.0957 -1.05664,3.0957 a 0.45681,0.45681 0 0 1 -0.43359,0.34571 h -0.0815 a 0.46288,0.46288 0 0 1 -0.4336,-0.34571 z"
         fill="#1f1f1f"
         id="path159" />
      <path
         d="m 119.32861,266.61523 a 0.41773,0.41773 0 0 1 0.41993,-0.41992 h 0.0884 a 0.43786,0.43786 0 0 1 0.38575,0.22364 l 1.43652,2.249 1.44287,-2.25586 a 0.41883,0.41883 0 0 1 0.3794,-0.2168 h 0.0879 a 0.41784,0.41784 0 0 1 0.42041,0.41992 v 3.96979 a 0.41254,0.41254 0 0 1 -0.42041,0.41358 0.41943,0.41943 0 0 1 -0.41309,-0.41358 v -2.84521 l -1.1582,1.74121 a 0.3895,0.3895 0 0 1 -0.69825,0 l -1.15136,-1.72754 v 2.83838 a 0.40524,0.40524 0 0 1 -0.41358,0.40674 0.39939,0.39939 0 0 1 -0.40625,-0.40674 z"
         fill="#1f1f1f"
         id="path161" />
    </g>
    <g
       id="g171"
       inkscape:label="AUDIO OUT TRI">
      <path
         d="m 47.208,315.12891 h -1.00243 a 0.481,0.481 0 1 1 0,-0.96192 h 3.04834 a 0.481,0.481 0 0 1 0,0.96192 h -1.00245 v 3.2998 a 0.52173,0.52173 0 0 1 -1.04345,0 z"
         fill="#f0f0f0"
         id="path165" />
      <path
         d="m 50.644,314.68848 a 0.51738,0.51738 0 0 1 0.52149,-0.52149 H 52.812 a 1.89027,1.89027 0 0 1 1.38184,0.481 1.48923,1.48923 0 0 1 0.40625,1.084 v 0.0137 a 1.44769,1.44769 0 0 1 -0.94824,1.44287 l 0.72509,0.88086 a 0.60914,0.60914 0 0 1 0.16944,0.39941 0.48575,0.48575 0 0 1 -0.49463,0.48145 0.6249,0.6249 0 0 1 -0.51514,-0.271 l -1.01611,-1.2876 H 51.687 v 1.03711 a 0.5215,0.5215 0 1 1 -1.043,0 z m 2.1001,1.78222 c 0.50781,0 0.79932,-0.27148 0.79932,-0.6709 v -0.0137 c 0,-0.44726 -0.31153,-0.67773 -0.81983,-0.67773 H 51.687 v 1.3623 z"
         fill="#f0f0f0"
         id="path167" />
      <path
         d="m 55.82324,314.648 a 0.5215,0.5215 0 1 1 1.043,0 v 3.78076 a 0.5215,0.5215 0 1 1 -1.043,0 z"
         fill="#f0f0f0"
         id="path169" />
    </g>
    <g
       id="g179"
       inkscape:label="AUDIO OUT SIN">
      <path
         d="m 13.78174,318.4082 a 0.48745,0.48745 0 0 1 -0.19629,-0.39306 0.48,0.48 0 0 1 0.48779,-0.481 0.501,0.501 0 0 1 0.29785,0.0947 2.0021,2.0021 0 0 0 1.21289,0.42675 c 0.42676,0 0.68409,-0.16894 0.68409,-0.44726 v -0.0132 c 0,-0.26416 -0.1626,-0.3999 -0.95508,-0.603 -0.95508,-0.24414 -1.57178,-0.5083 -1.57178,-1.4502 v -0.0132 a 1.48345,1.48345 0 0 1 1.65967,-1.42969 2.75073,2.75073 0 0 1 1.50439,0.42041 0.48277,0.48277 0 0 1 -0.25781,0.894 0.49736,0.49736 0 0 1 -0.26416,-0.0747 1.97239,1.97239 0 0 0 -0.9956,-0.31836 c -0.39991,0 -0.60987,0.1831 -0.60987,0.41308 v 0.0137 c 0,0.31152 0.20313,0.41357 1.02295,0.62353 0.96192,0.25049 1.50391,0.59619 1.50391,1.42236 v 0.0137 c 0,0.94189 -0.71826,1.47021 -1.74121,1.47021 a 3.061,3.061 0 0 1 -1.78174,-0.56879 z"
         fill="#f0f0f0"
         id="path173" />
      <path
         d="m 18.47461,314.648 a 0.5215,0.5215 0 1 1 1.043,0 v 3.78076 a 0.5215,0.5215 0 1 1 -1.043,0 z"
         fill="#f0f0f0"
         id="path175" />
      <path
         d="m 20.92334,314.66162 a 0.5179,0.5179 0 0 1 0.522,-0.522 h 0.1084 a 0.64608,0.64608 0 0 1 0.542,0.30517 l 2.01221,2.64209 v -2.4458 a 0.5149,0.5149 0 0 1 1.02979,0 v 3.77392 a 0.51779,0.51779 0 0 1 -0.522,0.52148 H 24.582 A 0.64676,0.64676 0 0 1 24.04,318.6318 l -2.08643,-2.73731 v 2.54053 a 0.51514,0.51514 0 1 1 -1.03027,0 z"
         fill="#f0f0f0"
         id="path177" />
    </g>
    <g
       id="g187"
       inkscape:label="AUDIO OUT SAW">
      <path
         d="m 75.47217,318.4082 a 0.48745,0.48745 0 0 1 -0.19629,-0.39306 0.48,0.48 0 0 1 0.48779,-0.481 0.501,0.501 0 0 1 0.29785,0.0947 2.00208,2.00208 0 0 0 1.21289,0.42675 c 0.42676,0 0.68409,-0.16894 0.68409,-0.44726 v -0.0132 c 0,-0.26416 -0.1626,-0.3999 -0.95508,-0.603 -0.95508,-0.24414 -1.57178,-0.5083 -1.57178,-1.4502 v -0.0132 a 1.48345,1.48345 0 0 1 1.65967,-1.42969 2.75073,2.75073 0 0 1 1.50439,0.42041 0.48277,0.48277 0 0 1 -0.25781,0.894 0.49736,0.49736 0 0 1 -0.26416,-0.0747 1.9724,1.9724 0 0 0 -0.99561,-0.31836 c -0.3999,0 -0.60986,0.1831 -0.60986,0.41308 v 0.0137 c 0,0.31152 0.20313,0.41357 1.02295,0.62353 0.96191,0.25049 1.50391,0.59619 1.50391,1.42236 v 0.0137 c 0,0.94189 -0.71826,1.47021 -1.74121,1.47021 a 3.061,3.061 0 0 1 -1.78174,-0.56879 z"
         fill="#f0f0f0"
         id="path181" />
      <path
         d="m 79.7876,318.23877 1.65332,-3.73291 a 0.64412,0.64412 0 0 1 0.60986,-0.41309 h 0.061 a 0.635,0.635 0 0 1 0.60254,0.41309 l 1.65332,3.73291 a 0.51151,0.51151 0 0 1 0.0542,0.21 0.49458,0.49458 0 0 1 -0.49463,0.50147 0.53177,0.53177 0 0 1 -0.50147,-0.35938 l -0.31836,-0.74512 H 81.021 l -0.332,0.7793 a 0.51277,0.51277 0 0 1 -0.48095,0.3252 0.48,0.48 0 0 1 -0.481,-0.4878 0.55591,0.55591 0 0 1 0.06055,-0.22367 z m 2.93359,-1.31445 -0.65723,-1.56494 -0.65722,1.56494 z"
         fill="#f0f0f0"
         id="path183" />
      <path
         d="m 84.84668,314.83105 a 0.67345,0.67345 0 0 1 -0.04053,-0.19628 0.51786,0.51786 0 0 1 0.53516,-0.50831 0.526,0.526 0 0 1 0.50781,0.37256 l 0.9419,2.90625 0.94873,-2.8789 a 0.549,0.549 0 0 1 0.52832,-0.41358 h 0.08105 a 0.542,0.542 0 0 1 0.52881,0.41358 l 0.94824,2.8789 0.9419,-2.90625 a 0.52145,0.52145 0 0 1 0.501,-0.37256 0.50344,0.50344 0 0 1 0.51514,0.50147 0.73536,0.73536 0 0 1 -0.04053,0.20312 l -1.32812,3.72608 a 0.57767,0.57767 0 0 1 -0.542,0.42676 h -0.1084 A 0.5623,0.5623 0 0 1 89.23,318.55713 l -0.93506,-2.7168 -0.93457,2.7168 a 0.56283,0.56283 0 0 1 -0.53564,0.42676 h -0.1084 a 0.57855,0.57855 0 0 1 -0.542,-0.42676 z"
         fill="#f0f0f0"
         id="path185" />
    </g>
    <g
       id="g195"
       style="display:inline"
       inkscape:label="AUDIO OUT SQR">
      <path
         d="m 108.26807,318.4082 a 0.48745,0.48745 0 0 1 -0.19629,-0.39306 0.48,0.48 0 0 1 0.48779,-0.481 0.501,0.501 0 0 1 0.29785,0.0947 2.00208,2.00208 0 0 0 1.21289,0.42675 c 0.42676,0 0.68408,-0.16894 0.68408,-0.44726 v -0.0132 c 0,-0.26416 -0.16259,-0.3999 -0.95507,-0.603 -0.95508,-0.24414 -1.57178,-0.5083 -1.57178,-1.4502 v -0.0132 a 1.48345,1.48345 0 0 1 1.65967,-1.42969 2.75073,2.75073 0 0 1 1.50439,0.42041 0.48277,0.48277 0 0 1 -0.25781,0.894 0.49736,0.49736 0 0 1 -0.26416,-0.0747 1.97243,1.97243 0 0 0 -0.99561,-0.31836 c -0.3999,0 -0.60986,0.1831 -0.60986,0.41308 v 0.0137 c 0,0.31152 0.20313,0.41357 1.02295,0.62353 0.96191,0.25049 1.50391,0.59619 1.50391,1.42236 v 0.0137 c 0,0.94189 -0.71827,1.47021 -1.74122,1.47021 a 3.061,3.061 0 0 1 -1.78173,-0.56879 z"
         fill="#f0f0f0"
         id="path189" />
      <path
         d="m 112.64746,316.55176 v -0.0137 a 2.52142,2.52142 0 0 1 5.04053,-0.0137 v 0.0137 a 2.43341,2.43341 0 0 1 -0.41992,1.36181 l 0.20312,0.16944 a 0.51211,0.51211 0 0 1 0.18994,0.39306 0.48857,0.48857 0 0 1 -0.83349,0.35205 l -0.25733,-0.23047 a 2.58238,2.58238 0 0 1 -1.40918,0.40674 2.43,2.43 0 0 1 -2.51367,-2.43896 z m 2.46631,0.53515 a 0.49161,0.49161 0 0 1 0.48779,-0.49462 0.48139,0.48139 0 0 1 0.34522,0.14209 l 0.522,0.46777 a 1.6647,1.6647 0 0 0 0.12842,-0.65039 v -0.0137 a 1.44027,1.44027 0 0 0 -1.436,-1.49024 1.41823,1.41823 0 0 0 -1.42285,1.47656 v 0.0137 a 1.44107,1.44107 0 0 0 1.43652,1.49072 1.42,1.42 0 0 0 0.623,-0.12891 l -0.49463,-0.41992 a 0.51249,0.51249 0 0 1 -0.18947,-0.39307 z"
         fill="#f0f0f0"
         id="path191" />
      <path
         d="m 118.89209,314.68848 a 0.51738,0.51738 0 0 1 0.52148,-0.52149 h 1.64649 a 1.89023,1.89023 0 0 1 1.38183,0.481 1.48923,1.48923 0 0 1 0.40625,1.084 v 0.0137 a 1.44768,1.44768 0 0 1 -0.94824,1.44287 l 0.7251,0.88086 a 0.60918,0.60918 0 0 1 0.16943,0.39941 0.48575,0.48575 0 0 1 -0.49463,0.48145 0.62489,0.62489 0 0 1 -0.51513,-0.271 l -1.01612,-1.2876 h -0.83349 v 1.03711 a 0.5215,0.5215 0 1 1 -1.043,0 z m 2.1001,1.78222 c 0.50781,0 0.79931,-0.27148 0.79931,-0.6709 v -0.0137 c 0,-0.44726 -0.31152,-0.67773 -0.81982,-0.67773 h -1.03662 v 1.3623 z"
         fill="#f0f0f0"
         id="path193" />
    </g>
    <g
       id="g127"
       inkscape:label="Title VCO"
       style="display:inline;stroke-width:1.56079;stroke-dasharray:none"
       transform="matrix(1.8900173,0,0,1.9547447,-62.547344,-27.354659)">
      <g
         id="g1066"
         inkscape:label="g1066"
         style="stroke-width:1.56079;stroke-dasharray:none"
         transform="translate(8.2215898,14.561968)">
        <path
           style="fill:#000000;fill-opacity:0;stroke:#000000;stroke-width:1.56079;stroke-linecap:round;stroke-linejoin:bevel;stroke-dasharray:none"
           d="m 48.29569,4.3697599 c 0.284173,0.7868422 0.607068,1.5610931 0.800637,2.3786805 0.134998,0.5701981 0.249153,1.1439826 0.378556,1.7157317 0.323098,1.4275687 0.495566,2.8829899 0.773824,4.3193859 0.07979,0.411869 0.02701,0.880315 0.255106,1.232416 0.09667,0.14923 0.257172,0.460176 0.436118,0.343312 0.187311,-0.122327 0.262185,-0.359499 0.331848,-0.562631 0.256067,-0.746667 0.32712,-1.539961 0.411161,-2.319792 0.06413,-0.595056 0.190669,-1.182947 0.24224,-1.7790564 0.109163,-1.261825 0.438724,-2.5049034 0.993441,-3.6469281 0.366203,-0.7539208 0.76912,-1.5212528 1.399142,-2.090158"
           id="path1048"
           inkscape:path-effect="#path-effect1050"
           inkscape:original-d="m 48.29569,4.3697599 c 0.514737,1.4218491 0.648115,1.4710467 1.044053,3.5494557 0.485547,1.8307914 0.521704,3.1761534 1.16407,6.0967584 0,0 0.40181,0.744957 0.631952,0.06882 0.490356,-0.798299 0.52491,-3.138924 0.784748,-4.330758 0.09651,-1.2005762 0.38965,-2.3373366 0.756426,-3.172423 0.402769,-0.9170354 0.948761,-2.0179872 1.640824,-2.6208925"
           sodipodi:nodetypes="cccccsc" />
        <path
           style="fill:#000000;fill-opacity:0;stroke:#000000;stroke-width:1.56079;stroke-linecap:round;stroke-linejoin:bevel;stroke-dasharray:none"
           d="M 61.510334,5.3726212 C 61.455428,4.9347421 61.141592,4.5551233 60.729614,4.4002027 60.071087,4.1525695 59.329732,4.2510388 58.687734,4.4914679 58.349652,4.61808 58.012944,4.7664877 57.742659,5.0158464 57.041601,5.6626273 56.512647,6.4789396 56.11253,7.3404987 55.712718,8.2014004 55.752998,9.170066 55.702678,10.097874 c -0.02482,0.45767 -0.0035,0.918713 0.10438,1.366239 0.137646,0.570991 0.301622,1.171379 0.682772,1.620242 0.37955,0.446979 0.95704,0.664208 1.512127,0.801624 0.674377,0.166947 1.409449,0.05509 1.99907,-0.318972 0.631928,-0.400906 1.201215,-0.891559 1.816375,-1.316894"
           id="path1052"
           inkscape:path-effect="#path-effect1054"
           inkscape:original-d="M 61.510334,5.3726212 C 61.291255,3.997519 59.411955,4.0127622 57.999611,4.8026374 c -0.932163,0.7078843 -1.67467,1.9860039 -1.962807,2.7191365 -0.371573,0.9454246 -0.306552,1.8575624 -0.34321,2.9193751 -0.01741,0.504119 0.106301,1.489934 0.718132,2.529536 0.364424,0.619213 1.590275,1.036324 2.365453,0.989233 1.069011,-0.06494 1.503272,-0.615795 3.040223,-1.709805"
           sodipodi:nodetypes="ccssssc" />
        <path
           style="fill:#000000;fill-opacity:0;stroke:#000000;stroke-width:1.56079;stroke-linecap:round;stroke-linejoin:bevel;stroke-dasharray:none"
           d="M 68.467755,5.0205106 C 68.180902,4.5692009 67.743987,4.1591835 67.184592,4.109713 66.729821,4.069495 66.332657,4.397694 65.885714,4.430222 65.512432,4.457389 65.307546,4.8255151 65.14414,5.1160509 c -0.231078,0.4108577 -0.477189,0.8161417 -0.629308,1.2662702 -0.345923,1.0236044 -0.427497,2.1186148 -0.387293,3.190825 0.04203,1.1210369 0.36436,2.2731859 1.075571,3.1312649 0.424786,0.512506 1.015663,0.853648 1.601776,1.153778 0.288739,0.147854 0.611027,0.216087 0.936441,0.194556 0.784246,-0.05189 1.620744,-0.291328 2.157616,-0.876354 0.304428,-0.331733 0.56736,-0.707126 0.765939,-1.110835 0.175129,-0.356036 0.325572,-0.729968 0.390187,-1.119524 0.110746,-0.667671 0.116967,-1.3483034 0.104903,-2.0229692 C 71.149051,8.3123049 71.198105,7.6954843 71.074782,7.091737 70.905331,6.2621606 70.627343,5.445924 70.19826,4.7153184 70.049153,4.4614319 69.790362,4.295056 69.541769,4.1512792 69.233248,3.9728425 68.884924,3.8052855 68.518872,3.838506"
           id="path1056"
           inkscape:path-effect="#path-effect1058"
           inkscape:original-d="M 68.467755,5.0205106 C 68.029587,4.3626866 67.347766,3.6818129 65.885714,4.430222 65.419655,4.4491684 65.17861,5.0935499 64.932683,5.4898948 64.243076,6.601291 64.120268,8.07803 64.121334,9.3042611 c 0.0013,1.4603779 0.523134,2.4960489 0.995803,3.2754859 0.401078,0.661385 1.760502,1.394113 2.19367,1.45561 0.851539,0.120902 2.197378,-0.305885 2.768024,-1.063021 0.801547,-1.063495 0.697337,-1.281495 0.947011,-1.925302 0.16865,-0.434884 0.12753,-2.6020016 0.135363,-3.0683769 C 71.184794,6.6968783 70.405303,4.9663733 70.101267,4.5701749 69.727833,4.2169212 69.016211,3.7759014 68.518872,3.838506"
           sodipodi:nodetypes="ccssssssccc" />
      </g>
    </g>
  </g>
</svg>
